<?xml version="1.0" standalone="yes"?>
<svg xmlns="http://www.w3.org/2000/svg" width="500" height="417">
<path style="fill:#212222; stroke:none;" d="M0 0L0 417L500 417L500 0L0 0z"/>
<path style="fill:#a48965; stroke:none;" d="M253 2L257 1L253 2M291.667 9.33334L292.333 9.66666L291.667 9.33334M269 14L268 15L268 17L273 17L269 14M229 16L229 18L230 19L232 19L233 15L229 16M174 20L174 22L176 22L176 20L174 20M229 26L229 27L233 28L232 25L229 26M261 29L262 33L244 30L244 34L215 37L216 41L219 41L219 42L213 46L213 47L271 44C272.498 48.8832 286.855 46.2227 293 47L293 51C308.678 47.8247 325.143 57.2748 339 64.2477C344.672 67.1018 350.474 72.2953 357 72L359 74C364.823 84.4288 386.403 88.9911 387 103L388 104L392 101L414 132C412.674 132.899 421.766 150.572 427 149L426 144L422 145L423 142C419.275 138.804 417.868 134.882 418 130C410.104 126.372 406.171 114.766 401.105 108C390.338 93.6207 376.339 77.1373 360 69L360 68L394 95C368.889 59.3513 326.078 45.9707 286.019 35.6952C282.164 34.7065 279.98 31.6412 276 31L276 34L265 34L267 30L261 29M293.667 30.3333L294.333 30.6667L293.667 30.3333M138 32L139 33L138 32z"/>
<path style="fill:#e7dabf; stroke:none;" d="M139 32L138 35L139 32z"/>
<path style="fill:#a48965; stroke:none;" d="M140 32L140 35L141 35L140 32M137 34L138 35L137 34M369 34L370 37L371 37L372 34L369 34M339 35L341 38L342 38L344 35L339 35M160 36L160 37L162 39L163 39L160 36z"/>
<path style="fill:#e7dabf; stroke:none;" d="M159 37L159 40L162 40L162 37L159 37z"/>
<path style="fill:#a48965; stroke:none;" d="M187 37L187 39L189 39L187 37z"/>
<path style="fill:#e7dabf; stroke:none;" d="M188 37L189 38L188 37z"/>
<path style="fill:#a48965; stroke:none;" d="M158 38L159 39L158 38M210 38L210 39L213 39L210 38z"/>
<path style="fill:#e7dabf; stroke:none;" d="M175 46L175 51L165 56L165 52L163 54L160 53L163 57C157.621 60.3042 153.502 63.4844 147 63L146 64L148 68C135.349 73.3566 113.516 94.5007 110 108L111 108L121 96L122 96L124 98C124.242 90.0315 134.68 83.6356 141 80L141 83C143.348 81.3611 143.429 80.4437 142 78L176 59C177.886 65.2059 182.991 62.8966 180 57L197 51L198 55L200 55L201 51L197 51C203.072 47.8132 216.968 48.116 219 41L216 41L217 39C202.806 35.9638 188.567 51.3938 175 46z"/>
<path style="fill:#a48965; stroke:none;" d="M206 39L206 40L209 40L206 39M160 40L161 41L160 40M202 40L202 41L205 41L202 40M199.667 41.3333L200.333 41.6667L199.667 41.3333M196.667 42.3333L197.333 42.6667L196.667 42.3333M193 43L194 44L193 43M335 43L335 46L338 45L338 44L335 43M190.667 44.3333L191.333 44.6667L190.667 44.3333M187 45L188 46L187 45z"/>
<path style="fill:#e7dabf; stroke:none;" d="M220 45L221 46L220 45z"/>
<path style="fill:#a48965; stroke:none;" d="M176.667 46.3333L177.333 46.6667L176.667 46.3333M184.667 46.3333L185.333 46.6667L184.667 46.3333M210.667 46.3333L211.333 46.6667L210.667 46.3333M178 47L179 48L178 47M182.667 47.3333L183.333 47.6667L182.667 47.3333M206 47L206 48L209 48L206 47M180 48L181 49L180 48M202.667 48.3333L203.333 48.6667L202.667 48.3333M176 49L177 50L176 49M199 49L198 51L197 50L197 51L199 52L201 49L199 49M174 50L175 51L174 50z"/>
<path style="fill:#212222; stroke:none;" d="M198 50L199 51L198 50z"/>
<path style="fill:#a48965; stroke:none;" d="M252.333 50.6667L252.667 51.3333L252.333 50.6667z"/>
<path style="fill:#66943d; stroke:none;" d="M253 50L254 51L253 50z"/>
<path style="fill:#a48965; stroke:none;" d="M173 51L174 52L173 51M194 51L195 52L194 51M196 51L196 54L197 54L196 51M220 51L220 55L221 55L220 51M171 52L172 53L171 52M191 52L192 53L191 52M218 52L219 53L218 52z"/>
<path style="fill:#e7dabf; stroke:none;" d="M219 52L221 56L221 52L219 52z"/>
<path style="fill:#a48965; stroke:none;" d="M162 53L163 54L162 53M165 53L165 56L166 56L165 53M169 53L170 54L169 53M188.667 53.3333L189.333 53.6667L188.667 53.3333M159 54L160 55L159 54M167 54L168 55L167 54M186 54L187 55L186 54M197 54L198 55L197 54M183.667 55.3333L184.333 55.6667L183.667 55.3333M218 55L219 56L218 55M373 55L374 59L376 59L377 58L377 56L373 55M161 56L162 57L161 56M181 56L182 57L181 56M219.667 56.3333L220.333 56.6667L219.667 56.3333M162 57L163 58L162 57M127 58L127 59L127 63C129.075 60.8499 129.56 59.795 127 58M160 58L161 59L160 58M181 58L182 59L181 58z"/>
<path style="fill:#e7dabf; stroke:none;" d="M126 62L129 59L126 62z"/>
<path style="fill:#a48965; stroke:none;" d="M175 59L176 60L175 59M310 64L314 59L310 64M126 60L127 61L126 60M157 60L158 61L157 60M173 60L174 61L173 60M182.333 60.6667L182.667 61.3333L182.333 60.6667M155 61L156 62L155 61M171 61L172 62L171 61M154 62L155 63L154 62M169 62L170 63L169 62M176 62L177 63L176 62z"/>
<path style="fill:#212222; stroke:none;" d="M351 62L351 63L359 67L359 66L351 62z"/>
<path style="fill:#a48965; stroke:none;" d="M396 62L397 63L396 62M146 63L147 64L146 63M148.667 63.3333L149.333 63.6667L148.667 63.3333M152 63L153 64L152 63M167 63L168 64L167 63M177 63L178 64L177 63M181 63L182 64L181 63M165 64L166 65L165 64M179 64L180 65L179 64M146 65L147 66L146 65M163 65L164 66L163 65M162 66L163 67L162 66z"/>
<path style="fill:#e7dabf; stroke:none;" d="M132 67L132 70L134 70L134 67L132 67z"/>
<path style="fill:#66943d; stroke:none;" d="M134 67L135 68L134 67z"/>
<path style="fill:#a48965; stroke:none;" d="M147 67L148 68L147 67M160 67L161 68L160 67M131 68L132 69L131 68M134.333 68.6667L134.667 69.3333L134.333 68.6667M158 68L159 69L158 68M144 69L145 70L144 69M157 69L158 70L157 69z"/>
<path style="fill:#212222; stroke:none;" d="M351 69L351 70L355 72L355 71L351 69z"/>
<path style="fill:#a48965; stroke:none;" d="M143 70L144 71L143 70M155.667 70.3333L156.333 70.6667L155.667 70.3333M140 72L141 73L140 72M152 72L153 73L152 72M139 73L140 74L139 73M142 79L151 74L142 79z"/>
<path style="fill:#212222; stroke:none;" d="M357 73L358 74L357 73z"/>
<path style="fill:#a48965; stroke:none;" d="M138 74L139 75L138 74M137 75L138 76L137 75z"/>
<path style="fill:#66943d; stroke:none;" d="M341 75L342 76L341 75z"/>
<path style="fill:#212222; stroke:none;" d="M360 75L362 77L360 75z"/>
<path style="fill:#a48965; stroke:none;" d="M164 76L165 77L164 76M341 76L342 77L341 76M134 77L135 78L134 77z"/>
<path style="fill:#e7dabf; stroke:none;" d="M164 77L165 78L164 77z"/>
<path style="fill:#a48965; stroke:none;" d="M133 78L134 79L133 78M132 79L133 80L132 79M144.333 79.6667L144.667 80.3333L144.333 79.6667M131 80L132 81L131 80M139 80L139 82L141 80L139 80M360.742 81.0818C358.322 82.8782 360.882 86.7433 363.397 84.9182C365.793 83.1794 363.182 79.2706 360.742 81.0818M130 81L126 87L130 81M143 81L144 82L143 81M386.667 81.3333L387.333 81.6667L386.667 81.3333M136 82L137 83L136 82M140 82L141 83L140 82M135 83L136 84L135 83M141.667 83.3333L142.333 83.6667L141.667 83.3333M134 84L135 85L134 84M131 86L132 87L131 86M125 87L126 88L125 87M130 87L131 88L130 87M124 88L125 89L124 88M129 88L130 89L129 88M123 89L124 90L123 89M128 89L129 90L128 89M121 90L121 92L123 90L121 90M127 90L128 91L127 90z"/>
<path style="fill:#212222; stroke:none;" d="M380 90L391 101L380 90z"/>
<path style="fill:#a48965; stroke:none;" d="M126 91L127 92L126 91M131 91L132 92L131 91M120 92L121 93L120 92M125 92L126 93L125 92z"/>
<path style="fill:#e7dabf; stroke:none;" d="M131 92L132 93L131 92z"/>
<path style="fill:#a48965; stroke:none;" d="M82 93L82 95L84 95L84 93L82 93M119 93L120 94L119 93M124 93L125 94L124 93M118 94L119 95L118 94M123 94L124 95L123 94M137 95L138 96L137 95z"/>
<path style="fill:#e7dabf; stroke:none;" d="M138 95L140 100L138 95z"/>
<path style="fill:#66943d; stroke:none;" d="M139 95L140 96L139 95z"/>
<path style="fill:#a48965; stroke:none;" d="M377 95L377 100L379 100L380 99L379 95L377 95z"/>
<path style="fill:#66943d; stroke:none;" d="M394 95L395 96L394 95z"/>
<path style="fill:#a48965; stroke:none;" d="M117 96L118 97L117 96M121 96L122 97L121 96M124.333 96.6667L124.667 97.3333L124.333 96.6667M139.333 96.6667L139.667 97.3333L139.333 96.6667z"/>
<path style="fill:#66943d; stroke:none;" d="M395 96L396 97L395 96z"/>
<path style="fill:#a48965; stroke:none;" d="M116 97L117 98L116 97M120 97L121 98L120 97M122 97L123 98L122 97M136.333 97.6667L136.667 98.3333L136.333 97.6667M115 98L116 99L115 98M119 98L120 99L119 98M140.333 98.6667L140.667 99.3333L140.333 98.6667M114 99L115 100L114 99M118 99L119 100L118 99M138 99L139 100L138 99M102 100L102 102L104 102L104 100L102 100M113 100L114 101L113 100M117 100L118 101L117 100M112.333 101.667L112.667 102.333L112.333 101.667M115 102L116 103L115 102z"/>
<path style="fill:#66943d; stroke:none;" d="M400 102L401 103L400 102z"/>
<path style="fill:#a48965; stroke:none;" d="M111 103L112 104L111 103M114 103L115 104L114 103M110 104L111 105L110 104M113 104L114 105L113 104M112 105L113 106L112 105M119 106L119 107L123 108L121 105L119 106M96 128L97 128L111 106C104.184 109.484 98.5824 120.946 96 128z"/>
<path style="fill:#e7dabf; stroke:none;" d="M118 107L118 109L122 110L121 106L118 107z"/>
<path style="fill:#a48965; stroke:none;" d="M111 107L112 108L111 107M117.333 107.667L117.667 108.333L117.333 107.667M118 109L119 110L118 109z"/>
<path style="fill:#66943d; stroke:none;" d="M391.667 110.333L392.333 110.667L391.667 110.333z"/>
<path style="fill:#a48965; stroke:none;" d="M422 110L426 113L422 110M96 118L100 119L101 114L96 118z"/>
<path style="fill:#66943d; stroke:none;" d="M285 114L286 115L285 114z"/>
<path style="fill:#a48965; stroke:none;" d="M336 114L335 116L337 116L336 114z"/>
<path style="fill:#66943d; stroke:none;" d="M337.667 114.333L338.333 114.667L337.667 114.333M340 114L341 115L340 114M342 114L343 115L342 114z"/>
<path style="fill:#a48965; stroke:none;" d="M343 114L344 115L343 114z"/>
<path style="fill:#66943d; stroke:none;" d="M344 114L345 115L344 114z"/>
<path style="fill:#a48965; stroke:none;" d="M78 116L78 118L79 119L81 119L82 115L78 116z"/>
<path style="fill:#66943d; stroke:none;" d="M329.667 115.333L330.333 115.667L329.667 115.333z"/>
<path style="fill:#a48965; stroke:none;" d="M350 115L351 116L350 115z"/>
<path style="fill:#66943d; stroke:none;" d="M351 115L352 116L351 115z"/>
<path style="fill:#a48965; stroke:none;" d="M383 119L388 118L387 115L383 119M414 115L414 117L416 117L416 115L414 115M290 116L291 117L290 116z"/>
<path style="fill:#66943d; stroke:none;" d="M291 116L292 117L291 116M327 116L328 117L327 116z"/>
<path style="fill:#a48965; stroke:none;" d="M328.667 116.333L329.333 116.667L328.667 116.333z"/>
<path style="fill:#66943d; stroke:none;" d="M342 116L339 120L342 116M350 116L351 117L350 116z"/>
<path style="fill:#a48965; stroke:none;" d="M358.333 116.667L358.667 117.333L358.333 116.667z"/>
<path style="fill:#66943d; stroke:none;" d="M359 116L360 117L359 116M272 117L273 118L272 117z"/>
<path style="fill:#a48965; stroke:none;" d="M320 120L324 118L320 120z"/>
<path style="fill:#66943d; stroke:none;" d="M324 117L325 118L324 117z"/>
<path style="fill:#a48965; stroke:none;" d="M327 117L328 118L327 117z"/>
<path style="fill:#66943d; stroke:none;" d="M333 117L334 118L333 117M366.667 117.333L367.333 117.667L366.667 117.333M275.333 118.667L275.667 119.333L275.333 118.667M277.667 118.333L278.333 118.667L277.667 118.333z"/>
<path style="fill:#a48965; stroke:none;" d="M295 118L296 119L295 118z"/>
<path style="fill:#66943d; stroke:none;" d="M296 118L297 119L296 118M319.333 118.667L319.667 119.333L319.333 118.667M326 118L327 119L326 118z"/>
<path style="fill:#a48965; stroke:none;" d="M366 118L367 119L366 118z"/>
<path style="fill:#66943d; stroke:none;" d="M370.667 118.333L371.333 118.667L370.667 118.333M282.667 119.333L283.333 119.667L282.667 119.333M299 119L300 120L299 119z"/>
<path style="fill:#a48965; stroke:none;" d="M300.667 119.333L301.333 119.667L300.667 119.333z"/>
<path style="fill:#66943d; stroke:none;" d="M306 119L307 120L306 119M309 120L309 121L313 120L309 120z"/>
<path style="fill:#a48965; stroke:none;" d="M310 120L310 121L319 120L310 120z"/>
<path style="fill:#66943d; stroke:none;" d="M325 119L326 120L325 119M331 119L329 122L331 119M357 119L355 122L357 119M374 119L375 120L374 119z"/>
<path style="fill:#a48965; stroke:none;" d="M375 119L376 120L375 119z"/>
<path style="fill:#66943d; stroke:none;" d="M376 119L377 120L376 119M279.667 120.333L280.333 120.667L279.667 120.333M285.333 120.667L285.667 121.333L285.333 120.667M287 120L288 121L287 120z"/>
<path style="fill:#a48965; stroke:none;" d="M288 120L289 121L288 120z"/>
<path style="fill:#66943d; stroke:none;" d="M289 120L290 121L289 120M304 120L305 121L304 120z"/>
<path style="fill:#a48965; stroke:none;" d="M305.667 120.333L306.333 120.667L305.667 120.333z"/>
<path style="fill:#66943d; stroke:none;" d="M323 120L324 121L323 120M347 120L344 125L347 120M379 120L380 121L379 120M263 121L264 124L265 124L265 121L263 121z"/>
<path style="fill:#a48965; stroke:none;" d="M290 121L291 122L290 121z"/>
<path style="fill:#66943d; stroke:none;" d="M291 121L292 122L291 121z"/>
<path style="fill:#a48965; stroke:none;" d="M292 121L292 122L295 122L292 121z"/>
<path style="fill:#66943d; stroke:none;" d="M295 121L296 122L295 121z"/>
<path style="fill:#a48965; stroke:none;" d="M316 121L314 122L314 123L316 121z"/>
<path style="fill:#66943d; stroke:none;" d="M374 121L373 123L374 121M384 121L387 123L387 122L384 121z"/>
<path style="fill:#a48965; stroke:none;" d="M399 122L402 126L403 121L399 122M59 122L58 126L59 122M265 122L265 123L269 123L265 122z"/>
<path style="fill:#66943d; stroke:none;" d="M289.667 122.333L290.333 122.667L289.667 122.333z"/>
<path style="fill:#a48965; stroke:none;" d="M296 122L296 123L301 123L296 122M304 124L314 124C311.159 121.987 306.533 121.29 304 124z"/>
<path style="fill:#66943d; stroke:none;" d="M309 122L310 123L309 122z"/>
<path style="fill:#a48965; stroke:none;" d="M319 124L322 123L319 124z"/>
<path style="fill:#66943d; stroke:none;" d="M322 122L323 123L322 122M336 122L335 126L336 126L336 122z"/>
<path style="fill:#a48965; stroke:none;" d="M384 122L385 123L384 122z"/>
<path style="fill:#66943d; stroke:none;" d="M269 123L270 124L269 123z"/>
<path style="fill:#a48965; stroke:none;" d="M270 123L271 124L270 123z"/>
<path style="fill:#66943d; stroke:none;" d="M271 123L272 124L271 123z"/>
<path style="fill:#a48965; stroke:none;" d="M272.667 123.333L273.333 123.667L272.667 123.333z"/>
<path style="fill:#66943d; stroke:none;" d="M274 123L275 124L274 123M278 123L275 124L275 125L278 123M286 123L287 124L286 123M294.667 123.333L295.333 123.667L294.667 123.333z"/>
<path style="fill:#a48965; stroke:none;" d="M301.667 123.333L302.333 123.667L301.667 123.333z"/>
<path style="fill:#66943d; stroke:none;" d="M303 123L304 124L303 123M305 123L307 125L305 123z"/>
<path style="fill:#212222; stroke:none;" d="M306 123L307 124L306 123z"/>
<path style="fill:#66943d; stroke:none;" d="M320 123L321 124L320 123z"/>
<path style="fill:#a48965; stroke:none;" d="M325 126L329 124L325 126z"/>
<path style="fill:#66943d; stroke:none;" d="M354 123L355 124L354 123M363 123L360 128L363 123z"/>
<path style="fill:#a48965; stroke:none;" d="M372 123L373 124L372 123M383 123L384 124L383 123z"/>
<path style="fill:#66943d; stroke:none;" d="M389 123L390 124L389 123M97 124L98 125L97 124M253 124L254 125L253 124z"/>
<path style="fill:#a48965; stroke:none;" d="M254 124L259 126L259 125L254 124z"/>
<path style="fill:#66943d; stroke:none;" d="M284 124L285 125L284 124M292 124L293 125L292 124M300 124L301 125L300 124M312 124L313 125L312 124M318 124L319 125L318 124M330 124L331 125L330 124z"/>
<path style="fill:#a48965; stroke:none;" d="M334 124L333 126L335 126L334 124z"/>
<path style="fill:#66943d; stroke:none;" d="M371.333 124.667L371.667 125.333L371.333 124.667z"/>
<path style="fill:#a48965; stroke:none;" d="M382 124L383 125L382 124z"/>
<path style="fill:#66943d; stroke:none;" d="M392 124L393 125L392 124z"/>
<path style="fill:#a48965; stroke:none;" d="M107.318 126.175C103.892 127.922 107.427 133.024 110.382 130.914C112.97 129.067 110.104 124.755 107.318 126.175M280 125L280 126L284 126L280 125z"/>
<path style="fill:#66943d; stroke:none;" d="M304.667 125.333L305.333 125.667L304.667 125.333M310 125L308 128L310 125M317 125L318 126L317 125M353 125L350 130L351 130L353 125M381 125L382 126L381 125z"/>
<path style="fill:#a48965; stroke:none;" d="M393.667 125.333L394.333 125.667L393.667 125.333M448 125L447 126L450 128L448 125z"/>
<path style="fill:#66943d; stroke:none;" d="M259 126L260 127L259 126z"/>
<path style="fill:#a48965; stroke:none;" d="M260 126L261 127L260 126z"/>
<path style="fill:#66943d; stroke:none;" d="M261 126L262 127L261 126z"/>
<path style="fill:#a48965; stroke:none;" d="M262.667 126.333L263.333 126.667L262.667 126.333z"/>
<path style="fill:#66943d; stroke:none;" d="M279 126L280 127L279 126M285 126L287 128L285 126z"/>
<path style="fill:#a48965; stroke:none;" d="M286 126L286 127L289 127L286 126z"/>
<path style="fill:#66943d; stroke:none;" d="M296 126L293 127L293 128L295 129L296 126M303 126L304 127L303 126M316 126L317 127L316 126M324 126L325 127L324 126M333 126L334 127L333 126M337 126L338 127L337 126M370 126L371 127L370 126M380 126L381 127L380 126M392 126L393 127L392 126M397 126L398 127L397 126M242 127L243 128L242 127z"/>
<path style="fill:#a48965; stroke:none;" d="M243.667 127.333L244.333 127.667L243.667 127.333z"/>
<path style="fill:#66943d; stroke:none;" d="M266 129L269 127L266 129M277 127L278 128L277 127M290 127L291 128L290 127z"/>
<path style="fill:#a48965; stroke:none;" d="M294 127L295 128L294 127z"/>
<path style="fill:#66943d; stroke:none;" d="M301 127L299 130L301 127M315 127L316 128L315 127M323 127L324 128L323 127M332 127L333 128L332 127M339.667 127.333L340.333 127.667L339.667 127.333z"/>
<path style="fill:#a48965; stroke:none;" d="M341 127L341 129L343 129L343 127L341 127z"/>
<path style="fill:#66943d; stroke:none;" d="M369 127L370 128L369 127M379 127L380 128L379 127M391 127L392 128L391 127M399.667 127.333L400.333 127.667L399.667 127.333z"/>
<path style="fill:#a48965; stroke:none;" d="M95 128L96 129L95 128M245 128L245 129L249 129L245 128M265 128L266 129L265 128z"/>
<path style="fill:#66943d; stroke:none;" d="M275 128L276 129L275 128M284 128L285 129L284 128M291 128L292 129L291 128z"/>
<path style="fill:#a48965; stroke:none;" d="M292.667 128.333L293.333 128.667L292.667 128.333z"/>
<path style="fill:#66943d; stroke:none;" d="M306 128L307 129L306 128M314 128L315 129L314 128M322 128L323 129L322 128M331.333 128.667L331.667 129.333L331.333 128.667M343 128L344 129L343 128M378 128L379 129L378 128M390 128L391 129L390 128M402 128L403 129L402 128z"/>
<path style="fill:#a48965; stroke:none;" d="M86 129L84 134C88.4054 134.166 91.2969 130.765 86 129z"/>
<path style="fill:#66943d; stroke:none;" d="M95 129L96 130L95 129M250 131L253 131L251 129L250 131M270 129L270 131L274 131L274 129L270 129M282 129L283 130L282 129z"/>
<path style="fill:#a48965; stroke:none;" d="M297.667 129.333L298.333 129.667L297.667 129.333z"/>
<path style="fill:#66943d; stroke:none;" d="M303.667 129.333L304.333 129.667L303.667 129.333z"/>
<path style="fill:#a48965; stroke:none;" d="M305 129L306 130L305 129z"/>
<path style="fill:#66943d; stroke:none;" d="M321 129L322 130L321 129M340.333 129.667L340.667 130.333L340.333 129.667M346 129L347 130L346 129M368 129L369 130L368 129z"/>
<path style="fill:#a48965; stroke:none;" d="M377 129L378 130L377 129z"/>
<path style="fill:#66943d; stroke:none;" d="M389 129L390 130L389 129z"/>
<path style="fill:#a48965; stroke:none;" d="M403.667 129.333L404.333 129.667L403.667 129.333z"/>
<path style="fill:#66943d; stroke:none;" d="M405 129L406 130L405 129z"/>
<path style="fill:#a48965; stroke:none;" d="M94 130L95 131L94 130z"/>
<path style="fill:#66943d; stroke:none;" d="M289 130L290 131L289 130z"/>
<path style="fill:#a48965; stroke:none;" d="M303.667 130.333L304.333 130.667L303.667 130.333z"/>
<path style="fill:#66943d; stroke:none;" d="M306 130L307 131L306 130M311 130L313 132L311 130M320 130L321 131L320 130M330 130L331 131L330 130M348 130L349 131L348 130z"/>
<path style="fill:#a48965; stroke:none;" d="M349 130L349 132L351 130L349 130z"/>
<path style="fill:#66943d; stroke:none;" d="M358 130L358 133L359 133L358 130z"/>
<path style="fill:#a48965; stroke:none;" d="M367 130L368 131L367 130z"/>
<path style="fill:#66943d; stroke:none;" d="M376 130L377 131L376 130M387 130L388 131L387 130z"/>
<path style="fill:#a48965; stroke:none;" d="M402 130L403 131L402 130z"/>
<path style="fill:#66943d; stroke:none;" d="M407 130L408 131L407 130M93 131L94 132L93 131M234 131L232 132L232 133L234 131M255 131L256 132L255 131M278 131L279 132L278 131M295 131L292 133L292 134L296 132L295 131M302 131L303 132L302 131M309.333 131.667L309.667 132.333L309.333 131.667z"/>
<path style="fill:#a48965; stroke:none;" d="M310.667 131.333L311.333 131.667L310.667 131.333z"/>
<path style="fill:#66943d; stroke:none;" d="M319 131L320 132L319 131M329 131L330 132L329 131M339 131L340 132L339 131M355 131L356 132L355 131z"/>
<path style="fill:#a48965; stroke:none;" d="M358 131L359 132L358 131M364 133L367 131L364 133z"/>
<path style="fill:#66943d; stroke:none;" d="M375 131L376 132L375 131M386 131L387 132L386 131M400 131L401 132L400 131M410 131L411 132L410 131z"/>
<path style="fill:#a48965; stroke:none;" d="M93 132L94 133L93 132M235 132L235 133L239 133L235 132M255 132L255 133L258 133L255 132z"/>
<path style="fill:#66943d; stroke:none;" d="M267 132L268 133L267 132z"/>
<path style="fill:#a48965; stroke:none;" d="M276 132L276 133L279 133L276 132z"/>
<path style="fill:#66943d; stroke:none;" d="M286 132L287 133L286 132M300.667 132.333L301.333 132.667L300.667 132.333M313.667 132.333L314.333 132.667L313.667 132.333M318 132L319 133L318 132M328 132L329 133L328 132z"/>
<path style="fill:#a48965; stroke:none;" d="M357 132L358 133L357 132z"/>
<path style="fill:#66943d; stroke:none;" d="M360 132L360 133L364 133L360 132z"/>
<path style="fill:#a48965; stroke:none;" d="M374 132L372 136L376 132L374 132z"/>
<path style="fill:#66943d; stroke:none;" d="M385 132L386 133L385 132M398 132L399 133L398 132z"/>
<path style="fill:#a48965; stroke:none;" d="M399 132L400 133L399 132z"/>
<path style="fill:#66943d; stroke:none;" d="M92.3333 133.667L92.6667 134.333L92.3333 133.667M235 133L236 134L235 133z"/>
<path style="fill:#a48965; stroke:none;" d="M240.667 133.333L241.333 133.667L240.667 133.333z"/>
<path style="fill:#66943d; stroke:none;" d="M242.333 133.667L242.667 134.333L242.333 133.667M252 133L253 134L252 133M259 133L262 136L259 133M264 133L265 134L264 133M275 133L276 134L275 133M280.667 133.333L281.333 133.667L280.667 133.333M284.333 133.667L284.667 134.333L284.333 133.667M299 133L300 134L299 133M307.667 133.333L308.333 133.667L307.667 133.333M316.333 133.667L316.667 134.333L316.333 133.667z"/>
<path style="fill:#a48965; stroke:none;" d="M317.667 133.333L318.333 133.667L317.667 133.333M356 133L357 134L356 133z"/>
<path style="fill:#66943d; stroke:none;" d="M376 133L376 134L381 134L376 133z"/>
<path style="fill:#a48965; stroke:none;" d="M382 135L385 133L382 135M397 133L398 134L397 133z"/>
<path style="fill:#66943d; stroke:none;" d="M85 134L86 135L85 134M239 134L240 135L239 134z"/>
<path style="fill:#a48965; stroke:none;" d="M261 134L263 136L263 134L261 134z"/>
<path style="fill:#66943d; stroke:none;" d="M263.333 134.667L263.667 135.333L263.333 134.667M273 134L274 135L273 134z"/>
<path style="fill:#a48965; stroke:none;" d="M282.667 134.333L283.333 134.667L282.667 134.333z"/>
<path style="fill:#66943d; stroke:none;" d="M290 134L292 137L290 134M298 134L299 135L298 134M306 134L307 135L306 134M319.667 134.333L320.333 134.667L319.667 134.333M337 134L334 139L337 134M347 134L343 141L344 141L347 134M356 134L357 135L356 134M364 134L365 135L364 134M372 134L373 135L372 134M395 134L396 135L395 134M245 135L246 136L245 135M247.333 135.667L247.667 136.333L247.333 135.667M271 135L270 137L271 135M281 135L282 136L281 135M287 135L287 137L289 137L289 135L287 135z"/>
<path style="fill:#a48965; stroke:none;" d="M289 135L290 136L289 135z"/>
<path style="fill:#66943d; stroke:none;" d="M296.667 135.333L297.333 135.667L296.667 135.333M305 135L306 136L305 135M315 135L316 136L315 135M321 135L322 136L321 135M326 135L327 136L326 135M355 135L356 136L355 135M363.333 135.667L363.667 136.333L363.333 135.667z"/>
<path style="fill:#a48965; stroke:none;" d="M381 135L382 136L381 135z"/>
<path style="fill:#66943d; stroke:none;" d="M389.667 135.333L390.333 135.667L389.667 135.333z"/>
<path style="fill:#a48965; stroke:none;" d="M391 138L395 135L391 138z"/>
<path style="fill:#66943d; stroke:none;" d="M411 135L412 136L411 135z"/>
<path style="fill:#a48965; stroke:none;" d="M245.667 136.333L246.333 136.667L245.667 136.333z"/>
<path style="fill:#66943d; stroke:none;" d="M258 136L259 137L258 136M264 136L265 137L264 136M279 136L278 138L279 136M294 136L295 137L294 136z"/>
<path style="fill:#a48965; stroke:none;" d="M295 136L293 137L293 138L295 136z"/>
<path style="fill:#66943d; stroke:none;" d="M302 138L305 136L302 138M314 136L315 137L314 136M323 136L324 137L323 136z"/>
<path style="fill:#a48965; stroke:none;" d="M324 136L324 138L326 138L326 136L324 136z"/>
<path style="fill:#66943d; stroke:none;" d="M354 136L355 137L354 136M371 136L372 137L371 136M380 136L381 137L380 136z"/>
<path style="fill:#a48965; stroke:none;" d="M409 136L410 137L409 136z"/>
<path style="fill:#66943d; stroke:none;" d="M420 136L421 137L420 136M228.333 137.667L228.667 138.333L228.333 137.667M233 137L234 138L233 137M248 137L249 138L248 137M256 137L257 138L256 137M266 137L267 138L266 137z"/>
<path style="fill:#a48965; stroke:none;" d="M266 139L269 137L266 139z"/>
<path style="fill:#66943d; stroke:none;" d="M286 137L287 138L286 137M296 137L297 138L296 137M312.667 137.333L313.333 137.667L312.667 137.333M326 137L327 138L326 137z"/>
<path style="fill:#a48965; stroke:none;" d="M362 137L363 138L362 137z"/>
<path style="fill:#66943d; stroke:none;" d="M370 137L371 138L370 137M379 137L380 138L379 137M395.667 137.333L396.333 137.667L395.667 137.333M407.667 137.333L408.333 137.667L407.667 137.333z"/>
<path style="fill:#a48965; stroke:none;" d="M410 137L410 140L413 139L413 138L410 137z"/>
<path style="fill:#66943d; stroke:none;" d="M421.667 137.333L422.333 137.667L421.667 137.333z"/>
<path style="fill:#a48965; stroke:none;" d="M224 140L228 139L224 140M231 138L230 140L231 138z"/>
<path style="fill:#66943d; stroke:none;" d="M249 138L250 139L249 138M253 138L254 139L253 138M268 138L269 139L268 138M276 138L277 139L276 138M284.667 138.333L285.333 138.667L284.667 138.333M292 138L293 139L292 138M298.667 138.333L299.333 138.667L298.667 138.333z"/>
<path style="fill:#a48965; stroke:none;" d="M299 140L302 138L299 140z"/>
<path style="fill:#66943d; stroke:none;" d="M311 138L312 139L311 138M323 138L324 139L323 138M327 138L328 139L327 138M353 138L354 139L353 138z"/>
<path style="fill:#a48965; stroke:none;" d="M361 138L362 139L361 138z"/>
<path style="fill:#66943d; stroke:none;" d="M369 138L370 139L369 138z"/>
<path style="fill:#a48965; stroke:none;" d="M378 138L379 139L378 138z"/>
<path style="fill:#66943d; stroke:none;" d="M389.667 138.333L390.333 138.667L389.667 138.333M398.667 138.333L399.333 138.667L398.667 138.333M405.667 138.333L406.333 138.667L405.667 138.333M423.667 138.333L424.333 138.667L423.667 138.333M223 139L224 140L223 139M229 139L230 140L229 139M231.667 139.333L232.333 139.667L231.667 139.333z"/>
<path style="fill:#a48965; stroke:none;" d="M250 139L250 140L253 140L250 139z"/>
<path style="fill:#66943d; stroke:none;" d="M264 139L265 140L264 139M270 139L271 140L270 139M274.667 139.333L275.333 139.667L274.667 139.333M282.667 139.333L283.333 139.667L282.667 139.333M290 139L291 140L290 139M302 139L302 140L305 141L305 143L292 145L299 141L299 140L286 144L286 145L294 147L286 151L288 155L281 157L281 161L277 158L280 159L280 158L278 157L285 154L285 153L282 152L282 150L289 147L289 146L280 150L282 154L275 161L272 159L272 158L279 153L279 152L276 149L284 144L283 143L274 149L277 153L270 160L266 159L272 152L260 157L268 151L268 150L255 155L255 153L262 146L261 146C257.627 150.367 253.362 153.902 249 149L257 145L257 144C253.058 145.249 244.911 149.064 251 153C245.071 161.23 228.956 162.327 220 160L220 159C223.503 158.169 226.54 155.153 230 154.723C237.857 153.746 239.349 156.474 247 151L247 150L238 154.352L230 152.791L217 156L223 149L215 155L213 151L219 148L219 147L214 148L212 151L213 148L212 148L210 152L214 156L203 160L208 152L199 157L199 158L203 157L202 160L199 159L196 162L196 159C188.729 163.487 182.913 167.091 174 166.871C164.615 166.639 150.567 162.868 142.213 168.854C134.368 174.476 135.523 187.774 132.867 196C131.377 200.612 127.682 204.076 125 208L127 206L128 206L131 212L130 212L127 209L123 214C126.106 213.482 130.016 209.938 129 214L133 217L134 217L132 210L141 212L137 219C145.509 213.189 148.671 212.009 154 222L155 222L152 212L162 215L162 216L156 219L172 220L173 219L171 216L186 216L188 220C193.428 219.146 200.704 215.879 205 220L228 208C223.746 211.533 215.902 214.929 216 221L217 221L220 219L219 217L222 218L221 216L224 217L224 214L233 216L232 219L233 220L239 219L251 215L243 222L247 228L248 227C246.737 218.178 256.894 214.706 264 216L258 223L270 218L268 215L277 215L274 221L273 222L269 224L270 225C275.023 221.463 278.785 216.197 285 214.684C303.338 210.22 339.669 221.98 341.032 194C341.201 190.54 341.66 187.415 341 184L347 181L362 180L356 173L361 179L344 178L344 176L351 174L351 170L347 169L347 168L355 165L355 164C351.465 164.465 346.517 165.087 346 169L342 170L340 166L344 162L348 163L348 162L345 161L345 160L349 159L349 158L344 158C342.986 158.862 341.107 159.065 343 158L343 157L340 156L348 148C343.072 150.558 338.797 154.127 339 160L323 152L323 153L328 155L328 156L317 160L313 156L321 153L316 147L316 148L320 152L309 155L306 152L306 150L313 148L313 147C308.857 147.626 302.46 150.009 308 154L308 155C303.824 155.049 300.24 155.029 301 160L290 161L290 160C292.232 159.354 300.099 155.739 294 155L294 154L302 152L298 148L298 149L301 150L288 153L288 152L306 144L302 139M310 139L311 140L310 139M322 139L323 140L322 139M329 139L330 140L329 139M360.333 139.667L360.667 140.333L360.333 139.667z"/>
<path style="fill:#a48965; stroke:none;" d="M377 139L378 140L377 139M388 139L389 140L388 139M401 139L401 140L405 141L401 139M425.333 139.667L425.667 140.333L425.333 139.667z"/>
<path style="fill:#66943d; stroke:none;" d="M222 140L223 141L222 140M228 140L229 141L228 140M234.333 140.667L234.667 141.333L234.333 140.667M236.667 140.333L237.333 140.667L236.667 140.333M240 144L240 145L246 149L243 144L251 141L240 144z"/>
<path style="fill:#212222; stroke:none;" d="M243 144L246 149C240.136 145.915 237.419 147.999 232 151L232 153C240.539 157.492 248.826 148.732 256 144C251.78 139.358 248.052 141.904 243 144z"/>
<path style="fill:#66943d; stroke:none;" d="M252.667 140.333L253.333 140.667L252.667 140.333M262.667 140.333L263.333 140.667L262.667 140.333z"/>
<path style="fill:#a48965; stroke:none;" d="M272 140L272 141L275 141L272 140z"/>
<path style="fill:#66943d; stroke:none;" d="M281 140L282 141L281 140M288.667 140.333L289.333 140.667L288.667 140.333z"/>
<path style="fill:#212222; stroke:none;" d="M292 145L305 143L305 141C299.721 139.87 296.013 141.517 292 145z"/>
<path style="fill:#66943d; stroke:none;" d="M309 140L310 141L309 140M321 140L322 141L321 140M330 140L326 148C328.582 146.121 332.989 143.041 330 140z"/>
<path style="fill:#a48965; stroke:none;" d="M332 140L332 142L334 142L332 140z"/>
<path style="fill:#66943d; stroke:none;" d="M333 140L334 141L333 140M352 140L353 141L352 140M368 140L369 141L368 140M376 140L377 141L376 140z"/>
<path style="fill:#a48965; stroke:none;" d="M387 140L388 141L387 140z"/>
<path style="fill:#66943d; stroke:none;" d="M221 141L220 144L221 141M227 141L228 142L227 141z"/>
<path style="fill:#a48965; stroke:none;" d="M235.667 141.333L236.333 141.667L235.667 141.333z"/>
<path style="fill:#66943d; stroke:none;" d="M254 141L255 142L254 141M260.667 141.333L261.333 141.667L260.667 141.333M264 148L269 149L269 148L265 148L273 142C268.814 141.393 265.804 144.471 264 148z"/>
<path style="fill:#212222; stroke:none;" d="M265 148C270.159 147.721 273.695 145.985 277 142C271.914 141.341 267.524 143.519 265 148z"/>
<path style="fill:#66943d; stroke:none;" d="M275.667 141.333L276.333 141.667L275.667 141.333M279 141L281 143L281 141L279 141M287 141L288 142L287 141z"/>
<path style="fill:#a48965; stroke:none;" d="M306 141L306 143L309 143L309 141L306 141z"/>
<path style="fill:#66943d; stroke:none;" d="M320 141L321 142L320 141z"/>
<path style="fill:#a48965; stroke:none;" d="M351 141L352 142L351 141z"/>
<path style="fill:#66943d; stroke:none;" d="M359 141L360 142L359 141z"/>
<path style="fill:#a48965; stroke:none;" d="M367 141L368 142L367 141z"/>
<path style="fill:#66943d; stroke:none;" d="M375 141L376 142L375 141M384 143L387 141L384 143z"/>
<path style="fill:#a48965; stroke:none;" d="M401 141L402 142L401 141z"/>
<path style="fill:#66943d; stroke:none;" d="M405 141L406 142L405 141M423 141L424 142L423 141z"/>
<path style="fill:#a48965; stroke:none;" d="M424 141L425 142L424 141z"/>
<path style="fill:#66943d; stroke:none;" d="M225 142L224 144L225 142M233 142L234 143L233 142M237 142L238 143L237 142M255 142L256 143L255 142M259 142L260 143L259 142z"/>
<path style="fill:#a48965; stroke:none;" d="M277 142L277 143L280 143L277 142z"/>
<path style="fill:#66943d; stroke:none;" d="M285.667 142.333L286.333 142.667L285.667 142.333M316 146L320 142L316 146z"/>
<path style="fill:#212222; stroke:none;" d="M324 152C331.152 155.51 335.769 151.929 339 145C331.989 141.156 327.146 145.254 324 152z"/>
<path style="fill:#66943d; stroke:none;" d="M334.667 142.333L335.333 142.667L334.667 142.333M342 142L343 143L342 142M350 142L350 144L352 142L350 142M358.333 142.667L358.667 143.333L358.333 142.667z"/>
<path style="fill:#a48965; stroke:none;" d="M366 142L367 143L366 142M374 142L375 143L374 142z"/>
<path style="fill:#66943d; stroke:none;" d="M399.667 142.333L400.333 142.667L399.667 142.333z"/>
<path style="fill:#a48965; stroke:none;" d="M407 142L408 143L407 142M91 144L91 145L94 146L94 143L91 144z"/>
<path style="fill:#66943d; stroke:none;" d="M218 143L217 145L218 143z"/>
<path style="fill:#a48965; stroke:none;" d="M219 143L214 148L222 146L219 143z"/>
<path style="fill:#66943d; stroke:none;" d="M238.667 143.333L239.333 143.667L238.667 143.333z"/>
<path style="fill:#a48965; stroke:none;" d="M256 143L256 144L259 144L256 143z"/>
<path style="fill:#66943d; stroke:none;" d="M276.667 143.333L277.333 143.667L276.667 143.333z"/>
<path style="fill:#a48965; stroke:none;" d="M283 143L283 144L286 144L283 143z"/>
<path style="fill:#212222; stroke:none;" d="M288 152L288 153L301 150L298 149L298 148L313 147L313 148L306 150L306 152L320 152C312.33 138.088 298.163 146.089 288 152z"/>
<path style="fill:#66943d; stroke:none;" d="M309.667 143.333L310.333 143.667L309.667 143.333M336.667 143.333L337.333 143.667L336.667 143.333M341 143L342 144L341 143M365 143L366 144L365 143z"/>
<path style="fill:#a48965; stroke:none;" d="M373 143L370 145L370 146L373 143M383 143L384 144L383 143M398 143L399 144L398 143z"/>
<path style="fill:#66943d; stroke:none;" d="M408.667 143.333L409.333 143.667L408.667 143.333M94 144L95 145L94 144M222 144L224 149L225 149L222 144M258 144L259 145L258 144M275 144L276 145L275 144z"/>
<path style="fill:#212222; stroke:none;" d="M276 150L288 146C283.545 143.299 279.331 146.814 276 150z"/>
<path style="fill:#a48965; stroke:none;" d="M290 144L291 145L290 144z"/>
<path style="fill:#66943d; stroke:none;" d="M311.667 144.333L312.333 144.667L311.667 144.333M338 144L339 147L340 147L340 144L338 144z"/>
<path style="fill:#a48965; stroke:none;" d="M340 144L340 146L342 146L342 144L340 144z"/>
<path style="fill:#66943d; stroke:none;" d="M349 144L350 145L349 144z"/>
<path style="fill:#a48965; stroke:none;" d="M357 144L354 148L357 144M364 144L361 148L366 145L364 144z"/>
<path style="fill:#66943d; stroke:none;" d="M370 144L371 145L370 144M374 144L375 145L374 144z"/>
<path style="fill:#a48965; stroke:none;" d="M377 149L383 144L377 149z"/>
<path style="fill:#66943d; stroke:none;" d="M396.667 144.333L397.333 144.667L396.667 144.333M410 144L411 145L410 144M418 144L419 145L418 144M228 145L229 146L228 145z"/>
<path style="fill:#a48965; stroke:none;" d="M240.667 145.333L241.333 145.667L240.667 145.333z"/>
<path style="fill:#66943d; stroke:none;" d="M260 145L261 146L260 145M273.667 145.333L274.333 145.667L273.667 145.333z"/>
<path style="fill:#a48965; stroke:none;" d="M288.667 145.333L289.333 145.667L288.667 145.333z"/>
<path style="fill:#66943d; stroke:none;" d="M313.667 145.333L314.333 145.667L313.667 145.333z"/>
<path style="fill:#a48965; stroke:none;" d="M315 145L313 146L313 147L315 145z"/>
<path style="fill:#66943d; stroke:none;" d="M342 145L343 146L342 145M362 145L363 146L362 145M366 145L367 146L366 145M395 145L396 146L395 145M401 145L402 146L401 145z"/>
<path style="fill:#a48965; stroke:none;" d="M402 145L403 146L402 145M412 145L413 146L412 145z"/>
<path style="fill:#66943d; stroke:none;" d="M416 145L417 146L416 145z"/>
<path style="fill:#a48965; stroke:none;" d="M440 145L439 149L443 148L440 145M61 148C62.7972 153.448 66.9511 150.995 66 146L61 148M104.333 146.667L104.667 147.333L104.333 146.667z"/>
<path style="fill:#212222; stroke:none;" d="M216 148L219 146L216 148M213 151L213 153L214 154L223 149L217 156C222.699 158.562 226.447 155.628 230 151L224 149C220.984 144.554 216.595 148.965 213 151z"/>
<path style="fill:#66943d; stroke:none;" d="M227 146L228 147L227 146M238.667 146.333L239.333 146.667L238.667 146.333z"/>
<path style="fill:#a48965; stroke:none;" d="M262 146L262 148L264 148L264 146L262 146z"/>
<path style="fill:#66943d; stroke:none;" d="M272 146L273 147L272 146z"/>
<path style="fill:#212222; stroke:none;" d="M282 152L294 147C289.052 145.795 284.676 147.626 282 152z"/>
<path style="fill:#66943d; stroke:none;" d="M344 146L344 147L348 147L344 146z"/>
<path style="fill:#a48965; stroke:none;" d="M347 148L350 146L347 148z"/>
<path style="fill:#66943d; stroke:none;" d="M350 146L350 147L355 147L350 146M357 146L357 147L360 147L357 146M363 146L364 147L363 146M368 149L371 146L368 149M380 146L381 147L380 146z"/>
<path style="fill:#212222; stroke:none;" d="M373 155L373 156L366 157C365.245 152.469 357.636 156.845 355 158L356 156L355 156L345 160L345 161L355 158L355 159L352 161L361 160L359 163L371 169L363 168C362.052 160.114 350.993 165.665 347 168L347 169L356 171C358.901 183.341 386.196 172.12 388 164L401 157L401 155C395.981 151.931 387.244 145.371 381 146.923C378.177 147.624 371.277 151.965 373 155z"/>
<path style="fill:#66943d; stroke:none;" d="M383 146L383 147L386 147L383 146z"/>
<path style="fill:#a48965; stroke:none;" d="M394 146L395 147L394 146M413 146L413 148L415 146L413 146z"/>
<path style="fill:#66943d; stroke:none;" d="M415 146L416 147L415 146M103 147L104 148L103 147z"/>
<path style="fill:#a48965; stroke:none;" d="M225 147L226 148L225 147z"/>
<path style="fill:#66943d; stroke:none;" d="M226.333 147.667L226.667 148.333L226.333 147.667M237 147L238 148L237 147M270 147L274 152L274 151L271 150L272 148L270 147z"/>
<path style="fill:#a48965; stroke:none;" d="M295 147L295 148L298 148L295 147z"/>
<path style="fill:#66943d; stroke:none;" d="M338 147L339 148L338 147z"/>
<path style="fill:#212222; stroke:none;" d="M340 157C346.712 156.782 351.193 153.018 354 147C347.543 147.487 343.58 151.919 340 157z"/>
<path style="fill:#66943d; stroke:none;" d="M362 147L363 148L362 147M386 147L387 148L386 147z"/>
<path style="fill:#a48965; stroke:none;" d="M387 147L388 148L387 147z"/>
<path style="fill:#66943d; stroke:none;" d="M388 147L389 148L388 147z"/>
<path style="fill:#a48965; stroke:none;" d="M389 149L394 147L389 149M213 148L212 150L213 148z"/>
<path style="fill:#212222; stroke:none;" d="M215 148L216 149L215 148z"/>
<path style="fill:#66943d; stroke:none;" d="M235.667 148.333L236.333 148.667L235.667 148.333z"/>
<path style="fill:#212222; stroke:none;" d="M255 153L255 155C260.214 155.964 263.803 152.924 267 149C261.941 148.072 259.051 150.136 255 153z"/>
<path style="fill:#a48965; stroke:none;" d="M269 148L267 149L267 150L269 148M325 148L326 149L325 148z"/>
<path style="fill:#66943d; stroke:none;" d="M337 148L338 149L337 148z"/>
<path style="fill:#a48965; stroke:none;" d="M346 148L347 149L346 148z"/>
<path style="fill:#66943d; stroke:none;" d="M354 148L355 149L354 148z"/>
<path style="fill:#a48965; stroke:none;" d="M360 148L361 149L360 148M367 148L368 149L367 148z"/>
<path style="fill:#66943d; stroke:none;" d="M376 148L374 151L376 148M411.667 148.333L412.333 148.667L411.667 148.333z"/>
<path style="fill:#212222; stroke:none;" d="M213.667 149.333L214.333 149.667L213.667 149.333z"/>
<path style="fill:#66943d; stroke:none;" d="M227.667 149.333L228.333 149.667L227.667 149.333M234 149L235 150L234 149z"/>
<path style="fill:#a48965; stroke:none;" d="M246 149L248 151L248 149L246 149z"/>
<path style="fill:#66943d; stroke:none;" d="M324 149L325 150L324 149M336 149L334 152L336 149M353 149L354 150L353 149M359 149L360 150L359 149z"/>
<path style="fill:#a48965; stroke:none;" d="M366 149L367 150L366 149z"/>
<path style="fill:#66943d; stroke:none;" d="M410 149L411 150L410 149z"/>
<path style="fill:#a48965; stroke:none;" d="M210 150L211 151L210 150z"/>
<path style="fill:#212222; stroke:none;" d="M212 150L213 151L212 150z"/>
<path style="fill:#66943d; stroke:none;" d="M229 150L230 151L229 150M232.667 150.333L233.333 150.667L232.667 150.333z"/>
<path style="fill:#212222; stroke:none;" d="M260 157L272 152L266 159L277 153C270.623 148.309 264.816 151.937 260 157z"/>
<path style="fill:#a48965; stroke:none;" d="M273.667 150.333L274.333 150.667L273.667 150.333M302 150L302 151L305 152L302 150M321 150L324 152L321 150z"/>
<path style="fill:#66943d; stroke:none;" d="M323 150L324 151L323 150M352 150L353 151L352 150M358 150L359 151L358 150M365 150L366 151L365 150M388.333 150.667L388.667 151.333L388.333 150.667z"/>
<path style="fill:#a48965; stroke:none;" d="M389 150L390 151L389 150z"/>
<path style="fill:#66943d; stroke:none;" d="M393 150L394 151L393 150z"/>
<path style="fill:#a48965; stroke:none;" d="M394 150L395 151L394 150M409 150L410 151L409 150M208 152L208 153L212 153L208 152z"/>
<path style="fill:#212222; stroke:none;" d="M211 151L212 152L211 151z"/>
<path style="fill:#a48965; stroke:none;" d="M230.667 151.333L231.333 151.667L230.667 151.333z"/>
<path style="fill:#212222; stroke:none;" d="M238 157L238 158C243.788 161.649 248.208 158.859 251 153C245.412 150.937 242.386 153.535 238 157z"/>
<path style="fill:#a48965; stroke:none;" d="M272 151L273 152L272 151M278 151L278 152L281 152L278 151z"/>
<path style="fill:#212222; stroke:none;" d="M294 154L294 155L308 155C303.546 150.609 299.402 152.246 294 154z"/>
<path style="fill:#66943d; stroke:none;" d="M303 151L304 152L303 151z"/>
<path style="fill:#a48965; stroke:none;" d="M351 151L352 152L351 151z"/>
<path style="fill:#66943d; stroke:none;" d="M357 151L358 152L357 151M364 151L365 152L364 151z"/>
<path style="fill:#a48965; stroke:none;" d="M373 151L374 152L373 151M387 151L388 152L387 151M395 151L396 152L395 151z"/>
<path style="fill:#66943d; stroke:none;" d="M396.333 151.667L396.667 152.333L396.333 151.667M407.667 151.333L408.333 151.667L407.667 151.333z"/>
<path style="fill:#a48965; stroke:none;" d="M424 151L425 152L424 151z"/>
<path style="fill:#212222; stroke:none;" d="M272 159L282 154C277.869 151.727 274.482 155.767 272 159z"/>
<path style="fill:#a48965; stroke:none;" d="M283 152L283 153L287 153L283 152z"/>
<path style="fill:#212222; stroke:none;" d="M313 156C318.427 158.995 322.38 158.151 328 156C323.45 151.478 317.922 152.318 313 156z"/>
<path style="fill:#66943d; stroke:none;" d="M333 152L331 155L333 152M350 152L351 153L350 152z"/>
<path style="fill:#a48965; stroke:none;" d="M356 152L357 153L356 152z"/>
<path style="fill:#66943d; stroke:none;" d="M362 152L361 154L362 152z"/>
<path style="fill:#a48965; stroke:none;" d="M363 152L364 153L363 152M372 152L373 153L372 152M386 152L387 153L386 152M397 152L398 153L397 152M406 152L407 153L406 152z"/>
<path style="fill:#66943d; stroke:none;" d="M424 152L425 153L424 152M210 153L211 154L210 153z"/>
<path style="fill:#212222; stroke:none;" d="M203 160L214 156L214 154C209.031 153.778 205.963 156.164 203 160M222 159L222 160C227.701 164.684 230.672 161.93 236 158C231.225 151.793 227.231 154.867 222 159M278 157L278 158L288 155L278 157z"/>
<path style="fill:#66943d; stroke:none;" d="M349 153L350 154L349 153z"/>
<path style="fill:#a48965; stroke:none;" d="M355 153L356 154L355 153M362 153L355 158L362 153z"/>
<path style="fill:#66943d; stroke:none;" d="M370 153L371 154L370 153z"/>
<path style="fill:#a48965; stroke:none;" d="M371 153L372 154L371 153z"/>
<path style="fill:#66943d; stroke:none;" d="M385 153L386 154L385 153z"/>
<path style="fill:#a48965; stroke:none;" d="M398 153L399 154L398 153z"/>
<path style="fill:#66943d; stroke:none;" d="M399 153L400 154L399 153z"/>
<path style="fill:#a48965; stroke:none;" d="M405 153L406 154L405 153z"/>
<path style="fill:#212222; stroke:none;" d="M206 154L203 156L203 157L207 155L206 154z"/>
<path style="fill:#a48965; stroke:none;" d="M215 154L216 155L215 154M252.667 154.333L253.333 154.667L252.667 154.333M289 154L289 155L293 155L289 154M309.667 154.333L310.333 154.667L309.667 154.333z"/>
<path style="fill:#66943d; stroke:none;" d="M348 154L349 155L348 154z"/>
<path style="fill:#a48965; stroke:none;" d="M354 154L353 156L355 156L354 154z"/>
<path style="fill:#66943d; stroke:none;" d="M358 154L359 155L358 154M363 154L363 155L367 155L363 154z"/>
<path style="fill:#a48965; stroke:none;" d="M366 157L371 155L366 157z"/>
<path style="fill:#66943d; stroke:none;" d="M383 154L383 156L385 154L383 154z"/>
<path style="fill:#a48965; stroke:none;" d="M400 154L401 155L400 154M403 154L404 155L403 154z"/>
<path style="fill:#66943d; stroke:none;" d="M404 154L405 155L404 154z"/>
<path style="fill:#a48965; stroke:none;" d="M425 154L426 155L425 154z"/>
<path style="fill:#212222; stroke:none;" d="M245 163C250.411 163.93 253.692 161.087 257 157C251.226 154.989 248.243 158.413 245 163M283 158L283 159L295 157C290.978 154.386 287.197 156.584 283 158z"/>
<path style="fill:#a48965; stroke:none;" d="M311 155L312 156L311 155M329 155L329 156L332 156L329 155z"/>
<path style="fill:#66943d; stroke:none;" d="M347 155L347 157L349 157L347 155M352 155L352 157L354 157L352 155M355.667 155.333L356.333 155.667L355.667 155.333M369 155L369 156L373 156L369 155z"/>
<path style="fill:#a48965; stroke:none;" d="M382 155L383 156L382 155M401 155L401 157L403 155L401 155z"/>
<path style="fill:#212222; stroke:none;" d="M207 163C218.278 167.841 219.934 151.528 210.138 159.3C208.799 160.363 208 161.647 207 163z"/>
<path style="fill:#a48965; stroke:none;" d="M295 157L295 158L300 158L295 157z"/>
<path style="fill:#212222; stroke:none;" d="M301 157L301 158L315 159C310.63 155.231 306.323 156.58 301 157z"/>
<path style="fill:#a48965; stroke:none;" d="M341 158L341 159L352 157L341 158z"/>
<path style="fill:#66943d; stroke:none;" d="M358 156L359 157L358 156M367 156L368 157L367 156M373 156L373 157L376 157L373 156z"/>
<path style="fill:#a48965; stroke:none;" d="M381 156L382 157L381 156M426 156L427 157L426 156z"/>
<path style="fill:#212222; stroke:none;" d="M200 159L203 157L200 159z"/>
<path style="fill:#a48965; stroke:none;" d="M236.667 157.333L237.333 157.667L236.667 157.333M257.667 157.333L258.333 157.667L257.667 157.333z"/>
<path style="fill:#66943d; stroke:none;" d="M297 157L298 158L297 157z"/>
<path style="fill:#212222; stroke:none;" d="M322 159L322 160C326.404 160.955 331.121 160.833 334 157L322 159z"/>
<path style="fill:#a48965; stroke:none;" d="M335 157L335 158L339 158L335 157z"/>
<path style="fill:#66943d; stroke:none;" d="M356 157L357 158L356 157M364 157L364 159L366 157L364 157z"/>
<path style="fill:#a48965; stroke:none;" d="M376.667 157.333L377.333 157.667L376.667 157.333z"/>
<path style="fill:#66943d; stroke:none;" d="M379 157L380 158L379 157z"/>
<path style="fill:#a48965; stroke:none;" d="M380 157L378 158L378 159L380 157z"/>
<path style="fill:#66943d; stroke:none;" d="M399 157L399 159L401 157L399 157M197 158L198 159L197 158z"/>
<path style="fill:#a48965; stroke:none;" d="M195 160L195 161L200 159L195 160z"/>
<path style="fill:#212222; stroke:none;" d="M254 163L262 159L254 163z"/>
<path style="fill:#a48965; stroke:none;" d="M264 158L265 159L264 158M270 158L271 159L270 158z"/>
<path style="fill:#66943d; stroke:none;" d="M274 158L275 159L274 158z"/>
<path style="fill:#a48965; stroke:none;" d="M275 158L273 159L273 160L275 158z"/>
<path style="fill:#212222; stroke:none;" d="M277 158L278 159L277 158z"/>
<path style="fill:#a48965; stroke:none;" d="M277 159L277 160L282 159L277 159z"/>
<path style="fill:#212222; stroke:none;" d="M290 160L290 161L301 160C297.456 157.357 293.929 158.529 290 160M345.667 158.333L346.333 158.667L345.667 158.333z"/>
<path style="fill:#66943d; stroke:none;" d="M349 160L350 163L355 163L355 162L352 161L355 159L349 160z"/>
<path style="fill:#a48965; stroke:none;" d="M363 158L364 159L363 158M398 158L399 159L398 158M201 159L202 160L201 159M220.667 159.333L221.333 159.667L220.667 159.333z"/>
<path style="fill:#212222; stroke:none;" d="M229 166C234.122 166.905 236.901 166.269 241 163C236.467 157.713 232.412 161.274 229 166z"/>
<path style="fill:#a48965; stroke:none;" d="M262.667 159.333L263.333 159.667L262.667 159.333M268.667 159.333L269.333 159.667L268.667 159.333M286 159L287 160L286 159M317 159L317 160L320 160L317 159z"/>
<path style="fill:#212222; stroke:none;" d="M336 159L336 160L339 160L336 159M342.667 159.333L343.333 159.667L342.667 159.333z"/>
<path style="fill:#66943d; stroke:none;" d="M361.667 159.333L362.333 159.667L361.667 159.333M376 159L375 161L377 161L376 159z"/>
<path style="fill:#a48965; stroke:none;" d="M377 159L378 160L377 159z"/>
<path style="fill:#66943d; stroke:none;" d="M380.667 159.333L381.333 159.667L380.667 159.333z"/>
<path style="fill:#a48965; stroke:none;" d="M397 159L398 160L397 159M427 159L428 164C431.101 161.948 430.314 160.101 427 159z"/>
<path style="fill:#212222; stroke:none;" d="M196 162L199 160L196 162M261 164L266 160L261 164z"/>
<path style="fill:#a48965; stroke:none;" d="M272 160L273 161L272 160z"/>
<path style="fill:#212222; stroke:none;" d="M274 160L275 161L274 160M279.667 160.333L280.333 160.667L279.667 160.333z"/>
<path style="fill:#a48965; stroke:none;" d="M283 160L284 161L283 160M303 160L303 161L308 161L303 160z"/>
<path style="fill:#212222; stroke:none;" d="M331 161L331 162L336 161L331 161M340.667 160.333L341.333 160.667L340.667 160.333z"/>
<path style="fill:#66943d; stroke:none;" d="M358 162L361 160L358 162M382 160L385 162L382 160M396 160L397 161L396 160z"/>
<path style="fill:#a48965; stroke:none;" d="M194 161L195 162L194 161z"/>
<path style="fill:#212222; stroke:none;" d="M196 166L204 162C200.025 161.433 198.391 162.866 196 166M217 163L217 164L224 165C222.095 161.633 220.485 161.566 217 163M266 164L270 162L266 164M273 161L274 162L273 161M278 161L279 162L278 161M282 163L288 162L282 163M311 161L311 162L320 162L311 161z"/>
<path style="fill:#a48965; stroke:none;" d="M322 161L322 162L325 162L322 161M326 161L326 162L327 164L340 163L340 162L326 161z"/>
<path style="fill:#66943d; stroke:none;" d="M333.667 161.333L334.333 161.667L333.667 161.333z"/>
<path style="fill:#a48965; stroke:none;" d="M341 161L341 162L344 162L341 161M347 161L347 162L351 162L347 161z"/>
<path style="fill:#66943d; stroke:none;" d="M373 161L373 163L375 161L373 161M394 161L394 163L396 161L394 161z"/>
<path style="fill:#212222; stroke:none;" d="M195 162L196 163L195 162z"/>
<path style="fill:#a48965; stroke:none;" d="M205 162L206 163L205 162M242 162L243 163L242 162M290 162L290 163L294 163L290 162z"/>
<path style="fill:#212222; stroke:none;" d="M298 162L298 163L308 163L298 162z"/>
<path style="fill:#a48965; stroke:none;" d="M310 162L316 164L316 163L310 162M344 164L347 163L344 164z"/>
<path style="fill:#212222; stroke:none;" d="M340 166L340 167L354 164C348.924 161.366 344.839 163.989 340 166z"/>
<path style="fill:#a48965; stroke:none;" d="M354 163L354 164L360 164L354 163M372 162L373 163L372 162z"/>
<path style="fill:#66943d; stroke:none;" d="M385 162L387 164L387 162L385 162z"/>
<path style="fill:#a48965; stroke:none;" d="M393 162L394 163L393 162z"/>
<path style="fill:#212222; stroke:none;" d="M194 163L195 164L194 163M253 163L254 164L253 163M280 163L281 164L280 163M320.667 163.333L321.333 163.667L320.667 163.333z"/>
<path style="fill:#66943d; stroke:none;" d="M337 163L338 164L337 163z"/>
<path style="fill:#212222; stroke:none;" d="M336 164L336 165L342 164L336 164z"/>
<path style="fill:#66943d; stroke:none;" d="M345 163L346 164L345 163M356 163L357 164L356 163M358 163L359 164L358 163M360 163L363 168L369 169L370 169C368.246 164.622 364.196 164.334 360 163M370 163L369 165L371 165L370 163z"/>
<path style="fill:#a48965; stroke:none;" d="M371 163L372 164L371 163M387 163L388 164L387 163M392 163L393 164L392 163z"/>
<path style="fill:#212222; stroke:none;" d="M193 164L194 165L193 164M204.667 164.333L205.333 164.667L204.667 164.333M260 164L261 165L260 164z"/>
<path style="fill:#a48965; stroke:none;" d="M297 164L298 165L297 164M300.333 164.667L300.667 165.333L300.333 164.667M317.667 164.333L318.333 164.667L317.667 164.333M321.667 164.333L322.333 164.667L321.667 164.333M388 164L391 166L388 164z"/>
<path style="fill:#66943d; stroke:none;" d="M390.667 164.333L391.333 164.667L390.667 164.333M455 164L456 165L455 164z"/>
<path style="fill:#a48965; stroke:none;" d="M456 164L457 165L456 164M226 165L227 166L226 165M264 167L264 168L272 167L264 167M273.667 165.333L274.333 165.667L273.667 165.333M329 165L330 166L329 165z"/>
<path style="fill:#212222; stroke:none;" d="M335 165L336 166L335 165z"/>
<path style="fill:#a48965; stroke:none;" d="M324.667 166.333L325.333 166.667L324.667 166.333M336 166L337 167L336 166M365 166L365 167L368 167L365 166z"/>
<path style="fill:#66943d; stroke:none;" d="M387.333 166.667L387.667 167.333L387.333 166.667z"/>
<path style="fill:#a48965; stroke:none;" d="M388 166L389 167L388 166M187 167L188 168L187 167M210 167L211 168L210 167M278 167L279 168L278 167M305 167L305 168L308 168L305 167M333 167L334 168L333 167M364 167L365 168L364 167M368 167L369 168L368 167M386 167L387 168L386 167M253 168L254 169L253 168M259 168L260 169L259 168M262 168L263 169L262 168M316 168L316 169L319 169L316 168M342 170L346 169L342 170z"/>
<path style="fill:#66943d; stroke:none;" d="M360 168L356 170L356 171L360 168z"/>
<path style="fill:#a48965; stroke:none;" d="M361 168L362 169L361 168z"/>
<path style="fill:#66943d; stroke:none;" d="M362 168L363 169L362 168z"/>
<path style="fill:#a48965; stroke:none;" d="M370 168L371 169L370 168z"/>
<path style="fill:#66943d; stroke:none;" d="M384.333 168.667L384.667 169.333L384.333 168.667z"/>
<path style="fill:#a48965; stroke:none;" d="M385 168L386 169L385 168M156 169L156 170L160 170L156 169M221.667 169.333L222.333 169.667L221.667 169.333z"/>
<path style="fill:#e7dabf; stroke:none;" d="M232 182C229.974 174.878 218.479 162.433 210.988 172.434C205.338 179.977 204.077 200.732 204 210C214.979 209.909 224.369 204.948 228 194L229 194C229.204 198.731 229.544 205.147 233.279 208.566C241.708 216.284 252.451 205.982 255 198L256 198L253 209C262.319 210.57 261.984 203.214 269 201L269 209L278 208C280.526 210.463 286.441 209.504 287.721 205.852C291.426 195.283 293.519 181.167 294 170C281.373 171.642 280.475 189.978 280 201L279 201L280 170C263.749 170.002 259.379 179.2 258 195L257 195L257 189C250.132 189.142 243.268 188.844 243 197L248 196C244.337 202.127 238.697 202.317 239.109 194C239.456 186.984 242.833 179.486 249 176L250 180L258 179C257.374 159.708 237.486 173.37 232 182z"/>
<path style="fill:#a48965; stroke:none;" d="M275 169L275 170L280 170L275 169M285.667 169.333L286.333 169.667L285.667 169.333M297 169L298 170L297 169z"/>
<path style="fill:#e7dabf; stroke:none;" d="M290 210C298.632 208.182 298.807 202.728 301 195L302 195L303 209C315.129 208.47 315.551 195.291 316 185C321.82 190.23 334.163 205.312 318 197C311.077 208.993 325.66 213.891 333.775 205.775C337.822 201.729 339.054 195.182 336.312 190.09C333.966 185.735 325.254 181.412 333 178L334 182C339.79 180.603 346.28 172.764 336.956 170.319C329.693 168.414 322.975 173.463 318 178L319 169C310.595 169.276 310.306 176.883 310 184L308 184C307.709 180.344 302.76 161.135 296.514 171.434C291.35 179.95 290.082 200.107 290 210z"/>
<path style="fill:#a48965; stroke:none;" d="M302 169L302 170L305 170L302 169M312 169L313 170L312 169M371 169L372 170L371 169z"/>
<path style="fill:#66943d; stroke:none;" d="M372 169L372 171L374 171L372 169z"/>
<path style="fill:#a48965; stroke:none;" d="M383 169L384 170L383 169M142.667 170.333L143.333 170.667L142.667 170.333z"/>
<path style="fill:#e7dabf; stroke:none;" d="M135 209C146.032 208.771 147.132 201.959 148 192L156 192L154 209L170 208L170 202C161.341 200.607 165.483 187.373 170 183L170 170L143.434 171.179L140.08 181L135 209z"/>
<path style="fill:#a48965; stroke:none;" d="M162 170L163 171L162 170M170 170L171 171L170 170M178 170L178 171L181 171L178 170z"/>
<path style="fill:#e7dabf; stroke:none;" d="M198 171L189 171C188.38 178.797 187.089 197.873 180 202L186 170C183.026 170.13 179.053 170.073 176.938 172.564C172.739 177.509 169.024 201.23 172.18 206.891C177.447 216.339 189.341 207.877 191.906 201C193.228 197.455 193.824 193.677 194.65 190C196.061 183.723 196.808 177.324 198 171z"/>
<path style="fill:#a48965; stroke:none;" d="M190.667 170.333L191.333 170.667L190.667 170.333M197 170L198 171L197 170M204 170L205 171L204 170z"/>
<path style="fill:#e7dabf; stroke:none;" d="M192 209L193 210C207.807 206.42 205.754 184.175 209 171C194.63 167.937 194.779 199.116 192 209z"/>
<path style="fill:#a48965; stroke:none;" d="M212 170L213 171L212 170M224 170L225 171L224 170M266 170L266 171L270 171L266 170M288 170L288 171L291 171L288 170M305 170L306 171L305 170M329 170L330 171L329 170M339 170L340 171L339 170z"/>
<path style="fill:#212222; stroke:none;" d="M343 170C344.92 172.957 346.696 172.883 350 172L343 170z"/>
<path style="fill:#66943d; stroke:none;" d="M381.667 170.333L382.333 170.667L381.667 170.333z"/>
<path style="fill:#a48965; stroke:none;" d="M200 171L201 172L200 171M210 171L211 172L210 171M232 171L233 172L232 171M241 171L242 172L241 171M256 171L257 172L256 171M264 171L265 172L264 171M351 171L356 174L356 173L351 171z"/>
<path style="fill:#66943d; stroke:none;" d="M353 171L353 172L356 172L353 171M374.667 171.333L375.333 171.667L374.667 171.333M379 171L379 173L381 171L379 171z"/>
<path style="fill:#a48965; stroke:none;" d="M141 172L142 173L141 172M324 172L325 173L324 172M376 172L376 173L376 174L379 173L379 172L376 172z"/>
<path style="fill:#66943d; stroke:none;" d="M377 172L378 173L377 172z"/>
<path style="fill:#a48965; stroke:none;" d="M197 173L198 174L197 173M323 173L324 174L323 173M349 173L350 174L349 173z"/>
<path style="fill:#212222; stroke:none;" d="M344 176L344 178L361 179C357.005 171.961 350.396 173.538 344 176z"/>
<path style="fill:#66943d; stroke:none;" d="M354 173L355 174L354 173M375 173L370 175L370 176L375 173z"/>
<path style="fill:#a48965; stroke:none;" d="M159 174L159 177L160 177L159 174M188.333 174.667L188.667 175.333L188.333 174.667M237 174L238 175L237 174M258 174L258 178L259 178L258 174M263 174L264 175L263 174M284 175L285 176L284 175z"/>
<path style="fill:#66943d; stroke:none;" d="M158 176L150 177L150 186L156 185L156 189L157 189L158 176z"/>
<path style="fill:#a48965; stroke:none;" d="M230 176L231 177L230 176M248 176L249 177L248 176z"/>
<path style="fill:#66943d; stroke:none;" d="M363 177L363 178L370 177L363 177z"/>
<path style="fill:#a48965; stroke:none;" d="M245 177L246 178L245 177M249 177L250 178L249 177M362 177L362 179L364 179L362 177M140 178L141 179L140 178M218 178L219 179L218 178z"/>
<path style="fill:#66943d; stroke:none;" d="M219 178L214 201C219.215 196.529 226.282 183.252 219 178z"/>
<path style="fill:#a48965; stroke:none;" d="M168 179L169 180L168 179M254.667 179.333L255.333 179.667L254.667 179.333M270 180L271 181L270 180z"/>
<path style="fill:#212222; stroke:none;" d="M343.667 180.333L344.333 180.667L343.667 180.333z"/>
<path style="fill:#a48965; stroke:none;" d="M417 180C415.796 183.554 416.384 184.877 420 186L419 180L417 180M149 181L150 182L149 181M168 181L169 182L168 181M242 181L243 182L242 181M261 181L262 182L261 181z"/>
<path style="fill:#66943d; stroke:none;" d="M270 181L267 194C270.976 193.148 271.738 184.162 270 181z"/>
<path style="fill:#a48965; stroke:none;" d="M347.667 181.333L348.333 181.667L347.667 181.333M231 182L232 183L231 182M183 183L184 184L183 183M329 183L330 184L329 183M139 184L140 185L139 184M167 184L168 185L167 184M279 184L280 185L279 184M291 185L292 186L291 185M282 186L283 187L282 186M333 186L334 187L333 186M335 188L336 189L335 188M138 190L139 191L138 190M315 190L316 191L315 190M156 191L157 192L156 191M181 192L182 193L181 192M206 192L207 193L206 192M324 192L325 193L324 192M337 192L338 193L337 192z"/>
<path style="fill:#e7dabf; stroke:none;" d="M151 193L152 194L151 193M149 194L150 195L149 194z"/>
<path style="fill:#66943d; stroke:none;" d="M300 194L301 195L300 194z"/>
<path style="fill:#a48965; stroke:none;" d="M314 194L315 195L314 194M218 195L219 196L218 195z"/>
<path style="fill:#66943d; stroke:none;" d="M256 195L257 196L256 195z"/>
<path style="fill:#a48965; stroke:none;" d="M328 197L329 198L328 197M164 198L165 199L164 198M146 199L147 200L146 199M337 199L338 200L337 199M313 200L314 201L313 200M324.667 200.333L325.333 200.667L324.667 200.333M136 201L137 202L136 201M166.667 201.333L167.333 201.667L166.667 201.333M298 203L299 204L298 203M302 203L303 204L302 203z"/>
<path style="fill:#5e9586; stroke:none;" d="M129 204L128 206L129 204M127 206L112 221L114 223L106 229L105 229L102 227L103 231L91 235L91 234L93 234L93 233L90 233L90 232L93 232L93 231L88 228L87 228L89 234C83.2088 234 76.3965 235.537 73 230L72 230C74.7025 237.35 84.4853 235 91 235L91 236L84 236L84 237L93 241L88 242L88 243C91.9025 243.127 93.9147 243.599 96 247L92 247L92 248L99 252C96.6999 252.595 78.4134 255.266 85 250L85 249L80 249L85 262L86 262L85 256L101 254L89 259L89 260L101 258L101 259L91 262L93 264L90 267L87 267L97 302C113.223 298.19 128.506 291.747 145 288.449C161.161 285.217 178.04 285.678 194 281.255C215.96 275.169 235.047 260.927 251 245C257.336 238.675 266.185 232.181 270 224C263.952 228.26 260.822 234.678 253 231L253 230L260 222L252 230L251 230L247 227C249.101 232.308 244.086 240.527 238 241.37C235.151 241.764 232.157 238.487 230 237L230 236L245 225L245 223L237 218C240.539 223.533 237.928 234.358 229.041 233.23C223.098 232.476 225.017 226.27 228.013 223.691C229.573 222.348 231.332 221.2 233 220L233 219C224.14 222.727 221.717 227.055 214 219L222 211C214.758 212.717 194.676 231.619 192 219L187 220L187 221L194 227L181 232L178 224L174 223C172.827 232.024 157.441 228.541 157 219L154 220L160 231L147 236L143 228L154 222L154 221L141 227L138 223L141 229C139.192 229.923 137.633 230.866 135.975 232.049C120.708 242.936 135.057 222.241 137 218L135 216L134 216L126 231L125 231C122.23 225.142 124.423 222.465 127 217L126 217L122 224L120 224L119 220L130 212L123 214L129 209L130 212L131 212L127 206z"/>
<path style="fill:#a48965; stroke:none;" d="M315 206L316 207L315 206z"/>
<path style="fill:#212222; stroke:none;" d="M130 207L131 208L130 207z"/>
<path style="fill:#e7dabf; stroke:none;" d="M228 207L229 208L228 207z"/>
<path style="fill:#212222; stroke:none;" d="M129 208L130 209L129 208z"/>
<path style="fill:#5e9586; stroke:none;" d="M131 208L132 209L131 208z"/>
<path style="fill:#a48965; stroke:none;" d="M141 208L142 209L141 208M162 208L162 209L165 209L162 208z"/>
<path style="fill:#5e9586; stroke:none;" d="M226 208L225 211L226 208z"/>
<path style="fill:#e7dabf; stroke:none;" d="M227 208L228 209L227 208z"/>
<path style="fill:#a48965; stroke:none;" d="M277 208L278 209L277 208M289 208L290 209L289 208M296 208L297 209L296 208M308 208L309 209L308 208M135.667 209.333L136.333 209.667L135.667 209.333M154.667 209.333L155.333 209.667L154.667 209.333M194.667 209.333L195.333 209.667L194.667 209.333M211 209L212 210L211 209z"/>
<path style="fill:#e7dabf; stroke:none;" d="M225 209L226 210L225 209z"/>
<path style="fill:#a48965; stroke:none;" d="M246 209L247 210L246 209M269.667 209.333L270.333 209.667L269.667 209.333M280 209L281 210L280 209M292 209L293 210L292 209M320 209L321 210L320 209M327 209L328 210L327 209z"/>
<path style="fill:#66943d; stroke:none;" d="M123 210L124 211L123 210z"/>
<path style="fill:#212222; stroke:none;" d="M127 210L128 211L127 210M132 210L136 218L137 218L141 212L132 210z"/>
<path style="fill:#5e9586; stroke:none;" d="M223.333 210.667L223.667 211.333L223.333 210.667z"/>
<path style="fill:#e7dabf; stroke:none;" d="M224 210L225 211L224 210z"/>
<path style="fill:#66943d; stroke:none;" d="M122 211L123 212L122 211z"/>
<path style="fill:#e7dabf; stroke:none;" d="M222 211L223 212L222 211z"/>
<path style="fill:#212222; stroke:none;" d="M141 227L153 221C149.716 207.196 134.65 214.782 141 227M152 212L155 219L162 216L162 215L152 212z"/>
<path style="fill:#5e9586; stroke:none;" d="M227 212L228 213L227 212z"/>
<path style="fill:#66943d; stroke:none;" d="M121 213L122 214L121 213z"/>
<path style="fill:#212222; stroke:none;" d="M130 213C125.883 219.102 120.725 223.827 125 231L126 231C130.504 224.924 137.556 219.354 130 213z"/>
<path style="fill:#e7dabf; stroke:none;" d="M218.333 213.667L218.667 214.333L218.333 213.667z"/>
<path style="fill:#66943d; stroke:none;" d="M120 214L121 215L120 214z"/>
<path style="fill:#5e9586; stroke:none;" d="M167.667 214.333L168.333 214.667L167.667 214.333z"/>
<path style="fill:#212222; stroke:none;" d="M222 214L223 215L222 214z"/>
<path style="fill:#5e9586; stroke:none;" d="M224.667 214.333L225.333 214.667L224.667 214.333z"/>
<path style="fill:#212222; stroke:none;" d="M216 221L216 222C222.414 227.349 229.486 222.879 233 216C226.579 213.064 221.27 217.237 216 221z"/>
<path style="fill:#5e9586; stroke:none;" d="M232 214L233 215L232 214M254 214L252 217L254 214z"/>
<path style="fill:#212222; stroke:none;" d="M265 214L266 215L265 214z"/>
<path style="fill:#5e9586; stroke:none;" d="M267 214L268 215L267 214z"/>
<path style="fill:#212222; stroke:none;" d="M268 215C271.237 218.615 273.821 218.708 277 215L268 215z"/>
<path style="fill:#66943d; stroke:none;" d="M126 217L129 215L126 217z"/>
<path style="fill:#5e9586; stroke:none;" d="M165 215L166 216L165 215z"/>
<path style="fill:#212222; stroke:none;" d="M189 216L189 218L195 216L189 216z"/>
<path style="fill:#66943d; stroke:none;" d="M216 215L217 216L216 215z"/>
<path style="fill:#212222; stroke:none;" d="M220 215L221 216L220 215z"/>
<path style="fill:#5e9586; stroke:none;" d="M223 215L224 216L223 215M237 215L233 219L237 215z"/>
<path style="fill:#212222; stroke:none;" d="M239 217C242.547 224.007 247.499 219.91 251 215L239 217M264 216C258.676 214.737 247.207 216.207 247.207 223.985C247.207 233.143 257.262 224.331 259.267 222.004C260.954 220.046 262.526 218.117 264 216z"/>
<path style="fill:#5e9586; stroke:none;" d="M264 215L264 216L267 217L267 216L267 215L264 215z"/>
<path style="fill:#66943d; stroke:none;" d="M265 215L266 216L265 215M124 216L123 218L124 216z"/>
<path style="fill:#212222; stroke:none;" d="M125 216L120 224L122 224L125 216M156 220C160.459 229.53 165.034 228.974 174 225C170.128 215.012 164.406 217.26 156 220M171 216C175.638 224.631 179.728 222.692 188 220L186 216L171 216M207.667 216.333L208.333 216.667L207.667 216.333z"/>
<path style="fill:#5e9586; stroke:none;" d="M221.667 216.333L222.333 216.667L221.667 216.333z"/>
<path style="fill:#66943d; stroke:none;" d="M135 217L136 218L135 217z"/>
<path style="fill:#5e9586; stroke:none;" d="M170 217L172 219L170 217z"/>
<path style="fill:#212222; stroke:none;" d="M191 220C195.564 225.932 199.462 223.385 205 220L205 218L191 220z"/>
<path style="fill:#5e9586; stroke:none;" d="M219.667 217.333L220.333 217.667L219.667 217.333M264 217L265 218L264 217M276 217L274 220L276 217z"/>
<path style="fill:#66943d; stroke:none;" d="M116 218L117 219L116 218M126 218L127 219L126 218z"/>
<path style="fill:#5e9586; stroke:none;" d="M192 218L193 219L192 218M216 220L219 218L216 220M249 218L245 223L249 218M263 218L264 219L263 218z"/>
<path style="fill:#212222; stroke:none;" d="M253 231C261.644 236.15 267.655 226.946 272 220C263.354 216.951 257.705 224.32 253 231z"/>
<path style="fill:#5e9586; stroke:none;" d="M269 218L269 219L273 222L269 218z"/>
<path style="fill:#66943d; stroke:none;" d="M271 218L272 219L271 218M124 219L125 220L124 219z"/>
<path style="fill:#5e9586; stroke:none;" d="M172 219L174 222L172 219z"/>
<path style="fill:#212222; stroke:none;" d="M214 219L215 220L214 219M228 235L242 225C238.452 217.639 226.757 218.922 224.345 227.184C223.547 229.917 226.616 232.93 228 235z"/>
<path style="fill:#5e9586; stroke:none;" d="M262 219L263 220L262 219z"/>
<path style="fill:#66943d; stroke:none;" d="M270 219L271 220L270 219M119 220L120 221L119 220M136.667 220.333L137.333 220.667L136.667 220.333M173 220L174 221L173 220M186 220L186 222L188 222L186 220M229 220L230 221L229 220z"/>
<path style="fill:#5e9586; stroke:none;" d="M261 220L262 221L261 220z"/>
<path style="fill:#66943d; stroke:none;" d="M111 221L112 222L111 221M124 221L125 222L124 221z"/>
<path style="fill:#212222; stroke:none;" d="M129 237C137.022 233.603 140.583 229.146 137 221C130.9 224.089 125.925 230.273 129 237z"/>
<path style="fill:#5e9586; stroke:none;" d="M137 221L138 222L137 221z"/>
<path style="fill:#66943d; stroke:none;" d="M151 221L152 222L151 221M156 221L157 222L156 221M172 221L173 222L172 221M180 223L185 221L180 223z"/>
<path style="fill:#5e9586; stroke:none;" d="M185 221L186 222L185 221z"/>
<path style="fill:#212222; stroke:none;" d="M177 225C181.644 232.767 185.903 229.044 193 227C190.571 218.652 183.051 223.249 177 225z"/>
<path style="fill:#66943d; stroke:none;" d="M191 221L192 222L191 221M202 221L203 222L202 221M209 222L209 223L216 224L209 222M228 221L229 222L228 221M230 221L231 222L230 221z"/>
<path style="fill:#5e9586; stroke:none;" d="M260 221L261 222L260 221M109 222L110 223L109 222z"/>
<path style="fill:#66943d; stroke:none;" d="M110 222L111 223L110 222M119 222L120 223L119 222M132 222L133 223L132 222M137.667 222.333L138.333 222.667L137.667 222.333M149 222L150 223L149 222M152 222L153 223L152 222z"/>
<path style="fill:#212222; stroke:none;" d="M143 228C146.551 237.056 152.707 233.377 160 231L156 222L143 228z"/>
<path style="fill:#66943d; stroke:none;" d="M173.667 222.333L174.333 222.667L173.667 222.333M192 222L193 223L192 222M200 222L201 223L200 222z"/>
<path style="fill:#5e9586; stroke:none;" d="M212 222L213 223L212 222z"/>
<path style="fill:#66943d; stroke:none;" d="M216 222L217 223L216 222M226 222L227 223L226 222M229 222L230 223L229 222z"/>
<path style="fill:#5e9586; stroke:none;" d="M271 222L270 224L271 222z"/>
<path style="fill:#66943d; stroke:none;" d="M106.667 223.333L107.333 223.667L106.667 223.333z"/>
<path style="fill:#212222; stroke:none;" d="M117 223L111 230L114 225L107 233L111 230L113 243L112 243L111 240L104 243L104 242C107.287 240.142 108.33 238.804 108 235L103 237L103 236L106 233L96 237L96 236L99 235L99 234L93 236L93 237L96 237L96 238C93.2361 239.063 94.7891 239.74 97 240L97 246L102 244L102 245L98 247L100 251C108.428 248.572 126.316 238.564 122 228L112 237C114.965 232.517 119.814 228.654 119 223L117 223z"/>
<path style="fill:#66943d; stroke:none;" d="M131 223L132 224L131 223M148 223L149 224L148 223M150 223L151 224L150 223M156 223L157 224L156 223M175 223L176 224L175 223M177 223L179 225L179 223L177 223z"/>
<path style="fill:#5e9586; stroke:none;" d="M179.667 223.333L180.333 223.667L179.667 223.333z"/>
<path style="fill:#66943d; stroke:none;" d="M193 223L194 224L193 223M207 223L206 225L207 223z"/>
<path style="fill:#212222; stroke:none;" d="M197 230C202.012 232.632 207.012 226.702 210 223L197 230M212.995 223.97C208.363 224.892 197.479 238.028 207.019 237.093C212.971 236.51 222.761 222.025 212.995 223.97z"/>
<path style="fill:#66943d; stroke:none;" d="M225 223L226 224L225 223z"/>
<path style="fill:#5e9586; stroke:none;" d="M104.667 224.333L105.333 224.667L104.667 224.333z"/>
<path style="fill:#66943d; stroke:none;" d="M132 224L133 225L132 224M138 224L139 225L138 224M158 224L159 225L158 224M174 224L175 225L174 224M194 224L195 225L194 224M197 224L198 225L197 224M226 224L227 225L226 224M101 225L102 226L101 225z"/>
<path style="fill:#5e9586; stroke:none;" d="M102.667 225.333L103.333 225.667L102.667 225.333z"/>
<path style="fill:#66943d; stroke:none;" d="M115 225L116 226L115 225M145 225L146 226L145 225M147 225L148 226L147 225M157 225L158 226L157 225M173 225L174 226L173 225M193.333 225.667L193.667 226.333L193.333 225.667M195 225L196 226L195 225z"/>
<path style="fill:#212222; stroke:none;" d="M243 225L231 235C235.123 249.636 256.782 233.73 243 225z"/>
<path style="fill:#5e9586; stroke:none;" d="M245 225L247 227L245 225z"/>
<path style="fill:#66943d; stroke:none;" d="M96.6667 226.333L97.3333 226.667L96.6667 226.333z"/>
<path style="fill:#5e9586; stroke:none;" d="M98 226L98 227L102 227L98 226z"/>
<path style="fill:#66943d; stroke:none;" d="M107 226L108 227L107 226M170 226L171 227L170 226M174 226L175 227L174 226z"/>
<path style="fill:#212222; stroke:none;" d="M163 230C166.566 239.09 173.068 235.281 180 232C175.461 224.468 170.067 228.365 163 230z"/>
<path style="fill:#66943d; stroke:none;" d="M177 226L178 227L177 226M206 226L207 227L206 226M239 226L240 227L239 226M92 227L93 228L92 227M105.333 227.667L105.667 228.333L105.333 227.667z"/>
<path style="fill:#5e9586; stroke:none;" d="M119 227L112 237L119 227z"/>
<path style="fill:#66943d; stroke:none;" d="M120.667 227.333L121.333 227.667L120.667 227.333M140.333 227.667L140.667 228.333L140.333 227.667M144 227L145 228L144 227M167 227L168 228L167 227M171 227L172 228L171 227M178 227L179 228L178 227M190 227L191 228L190 227M201 227L202 228L201 227M219 227L220 228L219 227M238 227L239 228L238 227M240 227L241 228L240 227z"/>
<path style="fill:#5e9586; stroke:none;" d="M71.3333 228.667L71.6667 229.333L71.3333 228.667z"/>
<path style="fill:#66943d; stroke:none;" d="M111 228L112 229L111 228M119 228L120 229L119 228M123 228L124 229L123 228M127 228L128 229L127 228M159 228L160 229L159 228M164 228L165 229L164 228M168 228L169 229L168 228M188 228L189 229L188 228M191 228L190 230L189 229L189 230L191 231L193 228L191 228M206 228L207 229L206 228M218 228L219 229L218 228M239 228L240 229L239 228M88 229L89 230L88 229M97.3333 229.667L97.6667 230.333L97.3333 229.667z"/>
<path style="fill:#5e9586; stroke:none;" d="M98 229L98 230L101 230L98 229z"/>
<path style="fill:#66943d; stroke:none;" d="M101.667 229.333L102.333 229.667L101.667 229.333z"/>
<path style="fill:#5e9586; stroke:none;" d="M111 229L112 230L111 229z"/>
<path style="fill:#66943d; stroke:none;" d="M139 229L140 230L139 229M165 229L166 230L165 229M178 229L179 230L178 229M186 229L187 230L186 229z"/>
<path style="fill:#212222; stroke:none;" d="M190 229L191 230L190 229z"/>
<path style="fill:#66943d; stroke:none;" d="M217 229L216 230L216 231L217 232L218 232L219 231L219 230L217 229z"/>
<path style="fill:#212222; stroke:none;" d="M228 237C223.365 230.019 209.718 228.476 209.167 240.089C208.776 248.344 217.404 245.437 220.998 242.573C223.336 240.71 225.613 238.799 228 237z"/>
<path style="fill:#66943d; stroke:none;" d="M251 229L252 230L251 229M93.3333 230.667L93.6667 231.333L93.3333 230.667z"/>
<path style="fill:#5e9586; stroke:none;" d="M94 230L94 231L97 231L94 230z"/>
<path style="fill:#212222; stroke:none;" d="M91 232L91 233L103 231L91 232M146 237C139.766 221.111 124.365 247.015 139.995 239.741C141.999 238.808 143.959 237.85 146 237z"/>
<path style="fill:#66943d; stroke:none;" d="M184 230L185 231L184 230M187 230L188 231L187 230z"/>
<path style="fill:#212222; stroke:none;" d="M184 234L190 231L184 234z"/>
<path style="fill:#5e9586; stroke:none;" d="M217 230L218 231L217 230z"/>
<path style="fill:#66943d; stroke:none;" d="M73 231L74 232L73 231M144 231L145 232L144 231M181.667 231.333L182.333 231.667L181.667 231.333M185 231L186 232L185 231z"/>
<path style="fill:#212222; stroke:none;" d="M195 231C190.611 234.571 182.581 238.756 185 245L186 245L198 234L198 233L195 231z"/>
<path style="fill:#66943d; stroke:none;" d="M200 231L201 232L200 231z"/>
<path style="fill:#5e9586; stroke:none;" d="M212 235L217 231L212 235z"/>
<path style="fill:#66943d; stroke:none;" d="M225 231L226 232L225 231M74 232L75 233L74 232M88 232L89 233L88 232M90 232L91 233L90 232M96 232L93 233L93 234L96 232M116 232L117 233L116 232M126 232L127 233L126 232M155 232L156 233L155 232z"/>
<path style="fill:#212222; stroke:none;" d="M149 237C152.82 243.651 158.994 239.389 165 238C162.054 229.62 154.863 233.664 149 237z"/>
<path style="fill:#66943d; stroke:none;" d="M179 232L180 233L179 232M183 232L184 233L183 232M187 232L188 233L187 232M193 232L194 233L193 232M197 232L198 233L197 232M224 232L225 233L224 232M226 232L227 233L226 232M232 232L233 233L232 232z"/>
<path style="fill:#212222; stroke:none;" d="M239 246C247.238 250.264 253.484 241.41 258 235C249.353 231.268 242.695 238.076 239 246z"/>
<path style="fill:#66943d; stroke:none;" d="M255 232L256 233L255 232M99 233L100 234L99 233M152 233L153 234L152 233M156 233L157 234L156 233M164 233L165 234L164 233M176 233L177 234L176 233M201 233L202 234L201 233M225 233L226 234L225 233M227 233L228 234L227 233M231 233L232 234L231 233M254 233L255 234L254 233M73 234L74 235L73 234M91 234L92 235L91 234z"/>
<path style="fill:#212222; stroke:none;" d="M92.6667 234.333L93.3333 234.667L92.6667 234.333M116 247C122.013 245.362 128.719 240.696 126 234C121.176 236.443 116.236 241.436 116 247z"/>
<path style="fill:#66943d; stroke:none;" d="M127 234L128 235L127 234z"/>
<path style="fill:#212222; stroke:none;" d="M169 238C173.103 241.593 180.241 238.177 183 234L169 238M199 234L187 245C191.813 254.95 199.942 244.953 205 240L205 239L199 234z"/>
<path style="fill:#66943d; stroke:none;" d="M211 234L212 235L211 234M226 234L227 235L226 234M232 234L233 235L232 234M74.3333 235.667L74.6667 236.333L74.3333 235.667z"/>
<path style="fill:#212222; stroke:none;" d="M75 235L75 237L82 237L82 238L76 240L87 239L87 240L77 241L81 244L79 246L86 249L86 250L82 250C84.1958 257.212 93.4593 253.752 99 252C96.0908 246.728 91.1577 248.779 86 249L86 248L96 247C94.2777 242.716 91.2263 243.015 87 243L87 242L93 239L88 239L88 238L91 238L91 237L82 237L82 236L90 236L75 235z"/>
<path style="fill:#66943d; stroke:none;" d="M90 235L91 236L90 235z"/>
<path style="fill:#5e9586; stroke:none;" d="M103 237L106 235L103 237z"/>
<path style="fill:#66943d; stroke:none;" d="M106 235L107 236L106 235M121 235L122 236L121 235M147 235L148 236L147 235M183 235L184 236L183 235z"/>
<path style="fill:#e7dabf; stroke:none;" d="M185 235L186 236L185 235z"/>
<path style="fill:#66943d; stroke:none;" d="M212 235L213 236L212 235M82.6667 236.333L83.3333 236.667L82.6667 236.333z"/>
<path style="fill:#5e9586; stroke:none;" d="M121 236L122 237L121 236z"/>
<path style="fill:#66943d; stroke:none;" d="M181 236L182 237L181 236M211 236L212 237L211 236M230 236L231 237L230 236M257 236L258 237L257 236z"/>
<path style="fill:#5e9586; stroke:none;" d="M75.3333 237.667L75.6667 238.333L75.3333 237.667z"/>
<path style="fill:#66943d; stroke:none;" d="M76 237L77 238L76 237z"/>
<path style="fill:#5e9586; stroke:none;" d="M77 237L78 238L77 237z"/>
<path style="fill:#66943d; stroke:none;" d="M78 237L78 238L82 238L78 237M93 237L94 238L93 237z"/>
<path style="fill:#5e9586; stroke:none;" d="M94.6667 237.333L95.3333 237.667L94.6667 237.333M97 239L97 240L103 238L97 239z"/>
<path style="fill:#66943d; stroke:none;" d="M121 237L122 238L121 237M88 238L88 239L91 239L88 238M98 238L99 239L98 238M109 238L110 239L109 238z"/>
<path style="fill:#212222; stroke:none;" d="M135 246L150 242L148 238C143.05 238.882 136.736 240.919 135 246z"/>
<path style="fill:#66943d; stroke:none;" d="M149 238L150 239L149 238z"/>
<path style="fill:#212222; stroke:none;" d="M183 238L180 240L180 241L183 238z"/>
<path style="fill:#66943d; stroke:none;" d="M186 238L187 239L186 238z"/>
<path style="fill:#212222; stroke:none;" d="M236 245C230.987 237.972 218.096 238.252 217.037 249.014C216.097 258.566 226.849 252.491 229.995 250.001C232.043 248.381 234.032 246.714 236 245z"/>
<path style="fill:#66943d; stroke:none;" d="M75 239L76 240L75 239M79.3333 239.667L79.6667 240.333L79.3333 239.667z"/>
<path style="fill:#5e9586; stroke:none;" d="M80 239L80 240L85 240L80 239z"/>
<path style="fill:#66943d; stroke:none;" d="M85.6667 239.333L86.3333 239.667L85.6667 239.333M148 239L149 240L148 239M163 239L164 240L163 239z"/>
<path style="fill:#212222; stroke:none;" d="M154 244L169 242C165.631 236.864 157.698 240.675 154 244z"/>
<path style="fill:#5e9586; stroke:none;" d="M76 242L79 241L76 242z"/>
<path style="fill:#212222; stroke:none;" d="M118 250C123.083 248.536 130.936 246.278 130 240L118 250z"/>
<path style="fill:#66943d; stroke:none;" d="M242 240L243 241L242 240M157 241L158 242L157 241z"/>
<path style="fill:#e7dabf; stroke:none;" d="M176 241L177 242L176 241z"/>
<path style="fill:#66943d; stroke:none;" d="M180 241L181 242L180 241z"/>
<path style="fill:#212222; stroke:none;" d="M213 249C211.535 246.793 209.609 243.11 206.829 242.346C203.184 241.343 194.207 249.35 194.207 253.01C194.207 260.922 202.943 256.548 205.998 254.208C208.31 252.437 210.635 250.7 213 249z"/>
<path style="fill:#5e9586; stroke:none;" d="M77 242L79 246L80 245L77 242z"/>
<path style="fill:#66943d; stroke:none;" d="M87 242L88 243L87 242M164 242L165 243L164 242M177 242L178 243L177 242M238 242L239 243L238 242M78 243L79 244L78 243M81 243L82 244L81 243z"/>
<path style="fill:#5e9586; stroke:none;" d="M82 243L83 244L82 243z"/>
<path style="fill:#66943d; stroke:none;" d="M83 243L84 244L83 243z"/>
<path style="fill:#5e9586; stroke:none;" d="M84 243L85 244L84 243z"/>
<path style="fill:#66943d; stroke:none;" d="M85.6667 243.333L86.3333 243.667L85.6667 243.333z"/>
<path style="fill:#5e9586; stroke:none;" d="M102.667 243.333L103.333 243.667L102.667 243.333z"/>
<path style="fill:#212222; stroke:none;" d="M164 250L164 251L178 244L164 250z"/>
<path style="fill:#66943d; stroke:none;" d="M239 243L240 244L239 243M80 244L81 245L80 244z"/>
<path style="fill:#212222; stroke:none;" d="M138 247L138 248L153 245L138 247z"/>
<path style="fill:#66943d; stroke:none;" d="M176 244L177 245L176 244z"/>
<path style="fill:#212222; stroke:none;" d="M170 256L171 256L184 247L184 245C178.028 243.979 167.29 249.024 170 256z"/>
<path style="fill:#66943d; stroke:none;" d="M209 244L210 245L209 244z"/>
<path style="fill:#212222; stroke:none;" d="M126 248L126 249L134 245L126 248M158.667 245.333L159.333 245.667L158.667 245.333z"/>
<path style="fill:#5e9586; stroke:none;" d="M79.3333 246.667L79.6667 247.333L79.3333 246.667z"/>
<path style="fill:#212222; stroke:none;" d="M101 254C106.455 254.64 113.299 251.441 115 246L101 254M166 246L167 247L166 246z"/>
<path style="fill:#66943d; stroke:none;" d="M197 246L198 247L197 246z"/>
<path style="fill:#212222; stroke:none;" d="M223 258L228 262L229 262L243 251C236.411 242.72 227.722 251.586 223 258z"/>
<path style="fill:#66943d; stroke:none;" d="M91.3333 247.667L91.6667 248.333L91.3333 247.667z"/>
<path style="fill:#212222; stroke:none;" d="M164 247L165 248L164 247M185 247L171 257L171 258C177.728 262.491 183.829 256.285 190 253L185 247z"/>
<path style="fill:#66943d; stroke:none;" d="M79.6667 248.333L80.3333 248.667L79.6667 248.333z"/>
<path style="fill:#5e9586; stroke:none;" d="M86 248L86 249L91 249L86 248z"/>
<path style="fill:#212222; stroke:none;" d="M162 248L163 249L162 248z"/>
<path style="fill:#66943d; stroke:none;" d="M85 249L86 250L85 249z"/>
<path style="fill:#212222; stroke:none;" d="M142 252L151 250L142 252M110 253L110 254L117 251L110 253M144 254L159 251C154.5 249.248 147.994 251.56 144 254M205 267L206 267L220 258L215 250C206.859 253.131 197.528 258.82 205 267M123 253L123 255L140 253L140 251L123 253M147 256L147 258L148 259L164 252L147 256z"/>
<path style="fill:#66943d; stroke:none;" d="M92 253L93 254L92 253z"/>
<path style="fill:#212222; stroke:none;" d="M85 256L86 260L101 254L85 256M103 256L103 257L109 255L103 256M105 261C110.895 262.437 116.845 258.748 122 256C117.299 253.025 108.954 257.805 105 261M125 257L125 258C130.507 259.514 138.311 258.341 143 255L125 257M150 260C154.832 264.62 162.724 259.35 168 257L168 255L150 260M176 262L180 268L196 261C192.192 249.939 182.882 258.375 176 262M101 257L102 258L101 257M128 261L129 264L146 260L145 257L128 261M89 260L89 261L101 259L89 260M107 264L108 267L125 260C119.864 256.443 112.138 261.892 107 264M154 264L154 266C160.039 267.509 167.396 264.412 173 262C167.831 256.129 160 261.539 154 264M207 267C211.76 276.842 221.149 267.498 227 263C220.621 255.465 213.535 262.986 207 267z"/>
<path style="fill:#66943d; stroke:none;" d="M84 259L85 260L84 259M88 259L89 260L88 259z"/>
<path style="fill:#a48965; stroke:none;" d="M86 260L87 267C90.9756 264.381 90.5613 261.395 86 260z"/>
<path style="fill:#e7dabf; stroke:none;" d="M98 261L99 262L98 261z"/>
<path style="fill:#212222; stroke:none;" d="M103 261L90 271L91 275C95.2971 272.774 105.954 266.464 103 261M131 265L132 268L150 264C146.472 258.622 136.288 263.909 131 265M110 270C115.453 270.32 125.09 267.577 127 262C121.489 262.949 113.186 265.178 110 270M182 269C187.553 276.122 195.878 270.317 203 268C198.42 258.504 188.732 265.072 182 269z"/>
<path style="fill:#66943d; stroke:none;" d="M91 263L92 264L91 263z"/>
<path style="fill:#212222; stroke:none;" d="M92 263L93 264L92 263z"/>
<path style="fill:#66943d; stroke:none;" d="M90 264L91 265L90 264z"/>
<path style="fill:#212222; stroke:none;" d="M158 268C161.387 273.83 172.579 269.714 178 268C174 260.753 164.215 266.562 158 268z"/>
<path style="fill:#66943d; stroke:none;" d="M86 265L87 266L86 265z"/>
<path style="fill:#212222; stroke:none;" d="M94 265L89 270L94 265M105 265C100.738 269.079 92.0407 273.502 93 280L98 277L94 283C99.8142 281.039 107.067 276.013 109 270L98 277L107 269L105 265M134 271L154 268C149.707 263.743 137.566 266.294 134 271M89 266L90 267L89 266M112 274C117.127 273.329 128.415 271.421 130 266C124.477 266.828 115.239 269.267 112 274M137 272L137 274L158 272C153.002 267.201 143.333 271.5 137 272M188 275C192.539 283.066 202.475 277.051 209 274L209 272C201.985 267.887 194.812 271.814 188 275M114 277L133 271C127.705 269.897 117.466 272.693 114 277M162 273C165.624 278.589 177.247 274.727 183 274C179.107 266.942 168.352 271.69 162 273M115 279L115 280C121.057 278.825 131.309 278.388 135 273L115 279M96 286L111 274C105.243 275.941 98.8865 280.61 96 286M139 276L139 277L162 277C156.599 271.486 145.996 275.448 139 276M166 278C170.279 286.801 181.237 281.614 189 281C185.594 272.715 173.072 275.89 166 278M102 283L102 284L112 277L102 283M117 281L117 283C122.858 282.878 134.295 281.872 138 277L117 281M142 280C146.431 289.747 158.355 284.371 167 284C162.814 274.434 150.43 279.826 142 280M106 283L106 284L114 281L106 283M118 285L122 292L144 287L140 280L118 285z"/>
<path style="fill:#a48965; stroke:none;" d="M441 286L447 283C443.443 279.486 440.823 281.277 441 286z"/>
<path style="fill:#66943d; stroke:none;" d="M427 281L428 282L427 281z"/>
<path style="fill:#212222; stroke:none;" d="M114 282L95 291L95 292C99.1538 291.285 115.293 287.25 114 282z"/>
<path style="fill:#a48965; stroke:none;" d="M50.6667 283.333L51.3333 283.667L50.6667 283.333M76 284L79 288L80 283L76 284z"/>
<path style="fill:#66943d; stroke:none;" d="M426 283L427 284L426 283z"/>
<path style="fill:#212222; stroke:none;" d="M96 294L98 300L120 293C116.589 281.654 103.381 290.11 96 294z"/>
<path style="fill:#a48965; stroke:none;" d="M402.667 286.333L403.333 286.667L402.667 286.333z"/>
<path style="fill:#66943d; stroke:none;" d="M403 287L404 288L403 287z"/>
<path style="fill:#a48965; stroke:none;" d="M413 287L413 290L416 290L416 287L413 287z"/>
<path style="fill:#66943d; stroke:none;" d="M424 289L425 290L424 289M423 291L424 292L423 291z"/>
<path style="fill:#e7dabf; stroke:none;" d="M121 292L122 293L121 292z"/>
<path style="fill:#a48965; stroke:none;" d="M422.333 293.667L422.667 294.333L422.333 293.667z"/>
<path style="fill:#66943d; stroke:none;" d="M421 295L422 296L421 295z"/>
<path style="fill:#a48965; stroke:none;" d="M82 296L82 302L86 298L82 296M421 296L422 297L421 296M420 297C411.975 313.874 399.949 335.791 384.424 346.866C381.349 349.06 368.926 357.244 371 361L364 374L367 370C373.585 368.894 379.415 361.629 383.996 357C397.935 342.916 412.449 323.277 418 304L421 305L424 299L420 297M65 298L66 302L68 302L69 301L69 299L65 298M105 300L106 301L105 300M396 303C397.801 314.523 407.08 300.531 396 303z"/>
<path style="fill:#e7dabf; stroke:none;" d="M397 303L397 305L399 305L399 303L397 303M396 305L397 306L396 305z"/>
<path style="fill:#a48965; stroke:none;" d="M95 308L96 309L98 306L95 308z"/>
<path style="fill:#e7dabf; stroke:none;" d="M397 306L398 307L397 306z"/>
<path style="fill:#a48965; stroke:none;" d="M448 306L450 310L450 306L448 306M91 310L91 317L95 315L91 310M426 318L430 318L430 314L426 318M95 316L96 317L95 316z"/>
<path style="fill:#66943d; stroke:none;" d="M96.3333 317.667L96.6667 318.333L96.3333 317.667z"/>
<path style="fill:#a48965; stroke:none;" d="M58 319L61 322L58 319M97 319L98 320L97 319M105 320L105 324L110 323L105 320M98 321L99 322L98 321M99 322L101 325L99 322M387 324L387 329L392 327L387 324M101 325L103 328L101 325z"/>
<path style="fill:#e7dabf; stroke:none;" d="M387 325L387 328L388 328L387 325z"/>
<path style="fill:#a48965; stroke:none;" d="M121 327L121 329L126 326L121 327M386 326L387 327L386 326M103 328C110.296 345.345 132.087 366.954 149 375L149 376L145 376C150.089 382.494 159.753 386.453 167 390.216C188.617 401.442 214.525 409.359 239 410L239 409L234 408L237 407L237 406L235 405L239 403L237 399C245.383 394.32 231.65 389.62 236 399C227.436 398.929 212.883 398.417 206 393L184 387L185 384L180 385L167 381L166 376L165 376L164 379L157 373L144 365.834L103 328z"/>
<path style="fill:#e7dabf; stroke:none;" d="M388 328L389 329L388 328z"/>
<path style="fill:#a48965; stroke:none;" d="M92 329L95 331L92 329M405.667 332.333L406.333 332.667L405.667 332.333M83 333L87 336L83 333z"/>
<path style="fill:#66943d; stroke:none;" d="M406 333L407 334L406 333M116 334L117 335L116 334z"/>
<path style="fill:#a48965; stroke:none;" d="M117 334L118 335L117 334M369 338L370 338L371 336L369 338z"/>
<path style="fill:#e7dabf; stroke:none;" d="M369 336L371 340L372 340L372 336L369 336z"/>
<path style="fill:#a48965; stroke:none;" d="M372 336L372 339L373 339L372 336M384 337L387 341L388 337L384 337z"/>
<path style="fill:#66943d; stroke:none;" d="M369 338L370 339L369 338z"/>
<path style="fill:#a48965; stroke:none;" d="M426.333 338.667L426.667 339.333L426.333 338.667M370 339L371 340L370 339M120 341L119 342L119 343L119 344L122 341L120 341M377 342L379 344L379 342L377 342M129 346L131 350L134 346L129 346z"/>
<path style="fill:#e7dabf; stroke:none;" d="M367 352L366 356L369 352L367 352z"/>
<path style="fill:#a48965; stroke:none;" d="M366 353L367 354L366 353M369 353L369 356L370 356L369 353M365.333 354.667L365.667 355.333L365.333 354.667M366.667 356.333L367.333 356.667L366.667 356.333M146.603 359.082C144.207 360.821 146.818 364.729 149.258 362.918C151.678 361.122 149.118 357.257 146.603 359.082M345 358L345 360L347 360L345 358z"/>
<path style="fill:#66943d; stroke:none;" d="M346 358L347 359L346 358z"/>
<path style="fill:#e7dabf; stroke:none;" d="M373 358L371 359L371 360L373 358z"/>
<path style="fill:#a48965; stroke:none;" d="M367 361L364 365L367 361z"/>
<path style="fill:#e7dabf; stroke:none;" d="M314 390C314 394.403 306.193 392.336 303 392C298.887 395.593 284.56 400.334 281 395L277 396L278 399L238 401L239 403C237.202 403.841 234.892 404.569 237 406L237 407L234 408C246.555 412.702 262.04 409.965 275 408.282C304.902 404.398 339.447 394.984 362.67 374.572C366.604 371.113 367.652 365.866 371 362C365.741 360.925 359.264 368.171 355 370.996C344.356 378.048 327.323 390.879 314 390z"/>
<path style="fill:#a48965; stroke:none;" d="M122.667 363.333L123.333 363.667L122.667 363.333M140 363L141 364L140 363z"/>
<path style="fill:#e7dabf; stroke:none;" d="M370 363L371 364L370 363z"/>
<path style="fill:#212222; stroke:none;" d="M141 365L147 370L141 365z"/>
<path style="fill:#a48965; stroke:none;" d="M353 365L353 366L355 368L356 368L353 365M362 365L363 366L362 365M376 365L376 368L379 368L379 365L376 365M169 366L170 367L169 366z"/>
<path style="fill:#e7dabf; stroke:none;" d="M353 366L355 368L355 366L353 366z"/>
<path style="fill:#a48965; stroke:none;" d="M361 366L362 367L361 366M353 367L354 368L353 367M359.667 367.333L360.333 367.667L359.667 367.333z"/>
<path style="fill:#e7dabf; stroke:none;" d="M368 367L369 368L368 367z"/>
<path style="fill:#a48965; stroke:none;" d="M358 368L359 369L358 368M136 369L137 370L136 369M357 369L358 370L357 369M137 370L138 371L137 370M355 370L356 371L355 370z"/>
<path style="fill:#e7dabf; stroke:none;" d="M367 370L368 371L367 370z"/>
<path style="fill:#a48965; stroke:none;" d="M138 371L139 372L138 371M354 371L355 372L354 371M139.667 372.333L140.333 372.667L139.667 372.333M328 377L329 377C331.369 372.98 333.344 375.111 333 379C336.707 373.817 330.01 370.402 328 377M352 372L353 373L352 372M362 372L363 373L362 372M381 373L384 377L385 373L384 372L381 373M141 373L142 374L141 373z"/>
<path style="fill:#e7dabf; stroke:none;" d="M330.564 374.171C328.573 375.471 330.241 379.261 332.436 377.829C334.427 376.529 332.759 372.739 330.564 374.171z"/>
<path style="fill:#a48965; stroke:none;" d="M351 373L352 374L351 373M142 374L145 376L142 374M349 374L350 375L349 374M347 375L348 376L347 375M361 375L362 376L361 375M346 376L347 377L346 376M360 376L361 377L360 376M344 377L345 378L344 377M358 377L359 378L358 377z"/>
<path style="fill:#212222; stroke:none;" d="M152 378L162 385L162 384L152 378z"/>
<path style="fill:#a48965; stroke:none;" d="M197 383L201 378L197 383z"/>
<path style="fill:#66943d; stroke:none;" d="M329 378L330 379L329 378z"/>
<path style="fill:#a48965; stroke:none;" d="M342 378L343 379L342 378M357 378L358 379L357 378M340 379L341 380L340 379M355.667 379.333L356.333 379.667L355.667 379.333M338.667 380.333L339.333 380.667L338.667 380.333M354 380L355 381L354 380M170 381L171 382L170 381M291 381L293 383L291 381M337 381L338 382L337 381M352 381L353 382L352 381z"/>
<path style="fill:#66943d; stroke:none;" d="M113 382L114 383L113 382z"/>
<path style="fill:#a48965; stroke:none;" d="M114 382L115 383L114 382M172 382L173 383L172 382z"/>
<path style="fill:#e7dabf; stroke:none;" d="M290 382L290 386L293 385L293 383L292 382L290 382z"/>
<path style="fill:#a48965; stroke:none;" d="M310 384L313 383L310 384M335 382L336 383L335 382M351 382L352 383L351 382z"/>
<path style="fill:#e7dabf; stroke:none;" d="M311 387L315 386L314 383L311 387z"/>
<path style="fill:#a48965; stroke:none;" d="M333 383L334 384L333 383M349 383L350 384L349 383z"/>
<path style="fill:#212222; stroke:none;" d="M174.667 384.333L175.333 384.667L174.667 384.333z"/>
<path style="fill:#a48965; stroke:none;" d="M293 384L294 385L293 384M314 384L315 385L314 384M331 384L332 385L331 384M347 384L348 385L347 384z"/>
<path style="fill:#212222; stroke:none;" d="M177 385L178 386L177 385z"/>
<path style="fill:#a48965; stroke:none;" d="M289 385L290 386L289 385M292 385L293 386L292 385M329 385L330 386L329 385M345.667 385.333L346.333 385.667L345.667 385.333M134 387L134 388L138 389L138 386L134 387M290.667 386.333L291.333 386.667L290.667 386.333M310 386L311 387L310 386M312 386L312 387L315 387L312 386M326.667 386.333L327.333 386.667L326.667 386.333M344 386L345 387L344 386z"/>
<path style="fill:#212222; stroke:none;" d="M167 387L167 388L182 395L182 394L167 387z"/>
<path style="fill:#a48965; stroke:none;" d="M324.667 387.333L325.333 387.667L324.667 387.333M342 387L343 388L342 387M258.333 388.667L258.667 389.333L258.333 388.667M321.667 388.333L322.333 388.667L321.667 388.333M340 388L341 389L340 388z"/>
<path style="fill:#66943d; stroke:none;" d="M196 389L197 390L196 389z"/>
<path style="fill:#a48965; stroke:none;" d="M197 389L198 390L197 389z"/>
<path style="fill:#66943d; stroke:none;" d="M315 389L316 390L315 389z"/>
<path style="fill:#a48965; stroke:none;" d="M315 391L318 389L315 391M319 389L320 390L319 389M338 389L339 390L338 389M214 394L218 395L219 394L218 390L214 394M312 390L312 392L309 391C310.992 393.197 312.664 392.586 315 391L312 390M336.667 390.333L337.333 390.667L336.667 390.333z"/>
<path style="fill:#66943d; stroke:none;" d="M302 391L303 392L302 391z"/>
<path style="fill:#a48965; stroke:none;" d="M303 391L304 392L303 391z"/>
<path style="fill:#e7dabf; stroke:none;" d="M310.667 391.333L311.333 391.667L310.667 391.333z"/>
<path style="fill:#a48965; stroke:none;" d="M334 391L335 392L334 391z"/>
<path style="fill:#e7dabf; stroke:none;" d="M294 392L295 393L294 392z"/>
<path style="fill:#a48965; stroke:none;" d="M295 392L296 393L295 392M302 392L301 394L303 394L302 392M305.667 392.333L306.333 392.667L305.667 392.333M332 392L333 393L332 392M294 393L295 394L294 393M308 393L309 394L308 393M330 393L331 394L330 393M280 394L281 395L280 394M298.667 394.333L299.333 394.667L298.667 394.333M327.667 394.333L328.333 394.667L327.667 394.333M277 395L277 396L280 396L277 395M281 395L281 398L282 398L281 395M294.667 395.333L295.333 395.667L294.667 395.333M325.667 395.333L326.333 395.667L325.667 395.333M349 396L349 397L353 397L349 396M289.667 396.333L290.333 396.667L289.667 396.333M323 396L324 397L323 396z"/>
<path style="fill:#e7dabf; stroke:none;" d="M349 397L349 398L353 398L349 397z"/>
<path style="fill:#a48965; stroke:none;" d="M174 397L177 400L176 397L174 397z"/>
<path style="fill:#66943d; stroke:none;" d="M176 397L177 398L176 397z"/>
<path style="fill:#e7dabf; stroke:none;" d="M238 397L239 398L238 397z"/>
<path style="fill:#a48965; stroke:none;" d="M284.667 397.333L285.333 397.667L284.667 397.333M320 397L321 398L320 397M261 398L262 399L261 398M277 398L278 399L277 398M317.667 398.333L318.333 398.667L317.667 398.333M323 398L325 400L323 398M349 398L350 399L349 398M352 398L353 399L352 398M260 399L261 400L260 399M267 399L267 400L273 400L267 399M314.667 399.333L315.333 399.667L314.667 399.333z"/>
<path style="fill:#e7dabf; stroke:none;" d="M323 399L324 400L323 399z"/>
<path style="fill:#a48965; stroke:none;" d="M350.667 399.333L351.333 399.667L350.667 399.333M243 400L243 401L260 401L243 400M311.667 400.333L312.333 400.667L311.667 400.333M371 400L372 404L373 404L374 400L371 400z"/>
<path style="fill:#66943d; stroke:none;" d="M374 400L375 401L374 400z"/>
<path style="fill:#e7dabf; stroke:none;" d="M236 401L237 402L236 401z"/>
<path style="fill:#a48965; stroke:none;" d="M308.667 401.333L309.333 401.667L308.667 401.333M305 402L306 403L305 402M301.667 403.333L302.333 403.667L301.667 403.333M296 404L296 405L299 405L296 404M169 405L168 406L169 409L173 408L169 405M292.667 405.333L293.333 405.667L292.667 405.333M287 406L287 407L290 407L287 406M141 407L140 410L143 410L141 407M281 407L281 408L284 408L281 407M273 408L273 409L278 409L273 408z"/>
<path style="fill:#e7dabf; stroke:none;" d="M233 409L234 410L233 409z"/>
<path style="fill:#a48965; stroke:none;" d="M263 409L263 410L270 410L263 409M217 410L219 412L219 410L217 410M246 410L246 411L249 411L246 410M251 410L252 411L251 410M280 410L279 411L279 413L280 414L282 414L283 413L283 411L282 410L280 410M249 411L250 412L249 411z"/>
<path style="fill:#e7dabf; stroke:none;" d="M280 411L280 413L282 413L282 411L280 411z"/>
<path style="fill:#66943d; stroke:none;" d="M337 414L338 415L337 414z"/>
<path style="fill:#a48965; stroke:none;" d="M336 415L337 416L336 415z"/>
<path style="fill:#e7dabf; stroke:none;" d="M337 415L338 416L337 415z"/>
</svg>
